<?xml version="1.0" encoding="utf-8"?>
<!-- Generator: Adobe Illustrator 21.0.2, SVG Export Plug-In . SVG Version: 6.00 Build 0)  -->
<svg version="1.1" id="Layer_1" xmlns="http://www.w3.org/2000/svg" xmlns:xlink="http://www.w3.org/1999/xlink" x="0px" y="0px"
	 width="1400px" height="980px" viewBox="0 0 1400 980" enable-background="new 0 0 1400 980" xml:space="preserve">
<rect fill="#5D9B6A" width="1400" height="980"/>
<g>
	<path fill="#FFFFFF" d="M1035.3,620.6l364.7-98.7v-5.2l-366,99L1035.3,620.6z M884,1.7l6.3-1.7h-19.1L0,235.7v5.2L877.9,3.4
		L1094.7,168L0,464.2v5.2l1099.8-297.6L1400,399.7v-6.3L884,1.7z M0,895.5v5.2l791.6-214.2l-1.3-4.8L0,895.5z"/>
</g>
<g>
	<polyline fill="none" stroke="#FFFFFF" stroke-width="5" stroke-linejoin="round" stroke-miterlimit="10" points="303.1,66.2 
		275.4,55.8 232.7,108.1 69.2,152.3 111.9,100 139.6,110.4 	"/>
	
		<line fill="none" stroke="#FFFFFF" stroke-width="5" stroke-linejoin="round" stroke-miterlimit="10" x1="275.4" y1="55.8" x2="111.9" y2="100"/>
	
		<line fill="none" stroke="#FFFFFF" stroke-width="5" stroke-linejoin="round" stroke-miterlimit="10" x1="248.1" y1="62.9" x2="205.4" y2="115.1"/>
	
		<line fill="none" stroke="#FFFFFF" stroke-width="5" stroke-linejoin="round" stroke-miterlimit="10" x1="220.9" y1="70" x2="178.2" y2="122.2"/>
	
		<line fill="none" stroke="#FFFFFF" stroke-width="5" stroke-linejoin="round" stroke-miterlimit="10" x1="193.6" y1="77" x2="150.9" y2="129.3"/>
	
		<line fill="none" stroke="#FFFFFF" stroke-width="5" stroke-linejoin="round" stroke-miterlimit="10" x1="166.4" y1="85" x2="123.7" y2="137.3"/>
	
		<line fill="none" stroke="#FFFFFF" stroke-width="5" stroke-linejoin="round" stroke-miterlimit="10" x1="139.1" y1="92.1" x2="96.4" y2="144.4"/>
	<polyline fill="none" stroke="#FFFFFF" stroke-width="5" stroke-linejoin="round" stroke-miterlimit="10" points="69.2,152.3 
		139,200.7 139.6,110.4 303.1,66.2 302.5,156.5 232.7,108.1 275.4,55.8 	"/>
	
		<line fill="none" stroke="#FFFFFF" stroke-width="5" stroke-linejoin="round" stroke-miterlimit="10" x1="126.3" y1="105.4" x2="123.3" y2="189.8"/>
	
		<line fill="none" stroke="#FFFFFF" stroke-width="5" stroke-linejoin="round" stroke-miterlimit="10" x1="111.9" y1="100" x2="108.9" y2="180.7"/>
	
		<line fill="none" stroke="#FFFFFF" stroke-width="5" stroke-linejoin="round" stroke-miterlimit="10" x1="97.2" y1="118.1" x2="94.4" y2="171.8"/>
	
		<line fill="none" stroke="#FFFFFF" stroke-width="5" stroke-linejoin="round" stroke-miterlimit="10" x1="139.1" y1="178.2" x2="81.6" y2="137"/>
	
		<line fill="none" stroke="#FFFFFF" stroke-width="5" stroke-linejoin="round" stroke-miterlimit="10" x1="139.3" y1="147.7" x2="97.2" y2="118.1"/>
	
		<line fill="none" stroke="#FFFFFF" stroke-width="5" stroke-linejoin="round" stroke-miterlimit="10" x1="290.9" y1="61.7" x2="287.9" y2="146.1"/>
	
		<line fill="none" stroke="#FFFFFF" stroke-width="5" stroke-linejoin="round" stroke-miterlimit="10" x1="276.4" y1="56.2" x2="273.5" y2="136.9"/>
	
		<line fill="none" stroke="#FFFFFF" stroke-width="5" stroke-linejoin="round" stroke-miterlimit="10" x1="261.8" y1="74.4" x2="259" y2="128"/>
	
		<line fill="none" stroke="#FFFFFF" stroke-width="5" stroke-linejoin="round" stroke-miterlimit="10" x1="303.7" y1="134.4" x2="246.2" y2="93.3"/>
	
		<line fill="none" stroke="#FFFFFF" stroke-width="5" stroke-linejoin="round" stroke-miterlimit="10" x1="303.9" y1="104" x2="261.8" y2="74.4"/>
</g>
<g>
	<ellipse fill="#467450" cx="438.7" cy="928.2" rx="22.9" ry="12.2"/>
	<path fill="#055CBA" d="M409.2,910.9c0,11.7,13.2,25.3,29.5,25.3s29.5-13.5,29.5-25.3s-13.2-13.6-29.5-13.6
		S409.2,899.2,409.2,910.9z"/>
	<ellipse fill="#017CFF" cx="438.7" cy="909.5" rx="29.5" ry="15.8"/>
	<ellipse fill="#FFFFFF" cx="438.7" cy="909.5" rx="25.8" ry="13.8"/>
	<path fill="#F8B799" d="M435.5,886.3l-1.6,20.3c0,0-1.7,1.6-3.7-0.6l-0.5-19.8H435.5z"/>
	<path fill="#F8B799" d="M439.1,885.7l0.8,15.7c0,0,2.4,1.2,3.5-0.7l0-15C443.5,885.7,440.1,885.2,439.1,885.7z"/>
	<path fill="#F1F2F2" d="M444.1,872.6c0,0,0.1,4.1,0,4.4s-6.5,1.5-7,2.4c-0.6,0.9-1.1,8.1-1.1,8.1s-4.1,2.4-6.9-0.5v-13.3
		L444.1,872.6z"/>
	<path fill="#E6E7E8" d="M444.1,877.1l0,8.7c0,0-3.9,1.3-6.1,0c0,0-0.1-5.2-0.9-6.3C437,879.5,438.1,876.2,444.1,877.1z"/>
	<path fill="#F8B799" d="M426.7,866.4c0,0-1.3,7.8-0.6,11.2c0.7,3.3,0.6,2.9-0.2,3c0,0,0.4,2.1,0,2.3c-0.4,0.2-2.4-0.3-2.7-2.7
		c-0.4-2.4,0-3,0-3s-1.4-7.2-0.2-11.7C423,865.4,424.4,866,426.7,866.4z"/>
	<path fill="#055CBA" d="M442.8,850.9c0,0,1.9,0.6,3.3,4.8c0.3,0.9,1.1,4.6,1.1,4.6l-4.2,0.4C443,860.8,443.5,851.4,442.8,850.9z"/>
	<path fill="#055CBA" d="M430.3,888c0.5,0.3,1,0.4,1.5,0.5v-13.3h-1.5V888z"/>
	<path fill="#F8B799" d="M446.7,860.4c0,0,0.6,2.5,0.9,3.4c0.4,0.9,2.7,6.9,4,8.2c1.2,1.3,1.8,1.5,1.5,2.1c-0.3,0.5,2.4,2.4,1.4,3.4
		c-0.9,0.9-2.8-0.1-3.3-0.6c-0.5-0.5-1.4-2.4-1.6-2.8c-0.1-0.4-4.3-5.4-5.6-9.5l-0.6-3.9L446.7,860.4z"/>
	<path fill="#F8B799" d="M433.9,848c0,0-1.9-0.7-2.4-3.7c-0.5-3,2-6.3,3.8-5.3c0,0-0.9-5.3,3.6-0.9c2.2,2.2,2.7,2.5,2.7,2.5
		s0.3,5.1-0.5,6.5c-0.8,1.3-2.8,1.3-2.8,1.3v1.8c0,0-1,2.3-4.4,0.4V848z"/>
	<path fill="#055CBA" d="M444.1,872.6c0,0.3,0,0.5,0,0.5s-10.5,7.6-15,1.2v-0.5L444.1,872.6z"/>
	<path fill="#017CFF" d="M432.6,851l1.3-0.4c3.5,1.9,4.4-0.4,4.4-0.4s2.1,0.1,4.5,0.7c0.7,0.7,0.3,7.8,0,14.4
		c-0.2,3.5,1.3,3.8,1.3,7.2c-0.4,0.2-10.5,7.6-15,1.2c0,0,0.8-4.3,0.8-5.7c0-1.3-0.8-5.2-0.8-5.2s-1.4,1.3-1.7,3.6
		c0,0-3.8-0.2-4.7-1.4C422.6,865,423.1,852.2,432.6,851z"/>
	<path fill="#231F20" d="M433.9,844.9c0,0-0.2,1.3-1.6,1.6c-0.3-0.5-0.7-1.3-0.8-2.2c-0.5-3-1.9-6.9,2.4-8c2.2-0.6,1.3-2.7,4.6-1
		c5.5,2.8,3.1,5.3,3.1,5.3s-4.8,1-6.3,0.2c-1.6-0.8-0.4,2.9-0.4,2.9s-0.3,0.1-0.6,0c0-1.3-1.2-1.2-1.4-0.7
		C432.6,843.7,433.9,844.9,433.9,844.9z"/>
	<path fill="#017CFF" d="M430.3,906.1l-0.2-7.6h4.5v0l-0.6,8.2C434,906.7,432.3,908.3,430.3,906.1z"/>
	<path fill="#F1F2F2" d="M434.7,896.8c0,0-2,1.4-4.7,0v1.7c0,0,1.9,1,4.6,0L434.7,896.8z"/>
	<path fill="#017CFF" d="M443.4,892.9l0,7.9c-0.4,0.7-1,0.9-1.6,1c-0.6,0-1.2-0.3-2-1l0-0.2l-0.4-7.4L443.4,892.9z"/>
	<path fill="#F1F2F2" d="M443.4,891.4l0,1.6c-1.8,0.7-3.3,0.5-4,0.3l-0.1-1.7C441.4,892.3,442.9,891.7,443.4,891.4z"/>
	<path fill="#055CBA" d="M444.5,900.8c0,0,1.4,0.8,3.2,2.5s0.4,3.1-2.2,2.6c-2.6-0.6-3.3-1.2-4.7-1.9c-1.4-0.7-1.1-2.2-1.1-3.1
		c0-0.3,1.1,1,1.9,1C441.3,898.4,444.5,900.8,444.5,900.8z"/>
	<path fill="#055CBA" d="M435,906.1c0,0,1.4,0.8,3.2,2.5s0.4,3.1-2.2,2.6c-2.6-0.6-3.3-1.2-4.7-1.9s-1.1-2.2-1.1-3.1
		c0-0.3,1.1,1,1.9,1C431.8,903.7,435,906.1,435,906.1z"/>
	<path fill="#055CBA" d="M429.9,863.3c0,0,0.8,3.5,0.9,4.7c0,1.7-0.9,6.8-0.9,6.8c-0.3-0.3-0.6-0.6-0.9-1c0,0,0,0,0,0
		c0,0,0.8-4.3,0.8-5.7c0-1.3-0.8-5.2-0.8-5.2l0,0v0c0,0,1.1-1.5,1.8-3.4C430.8,859.4,430.8,862,429.9,863.3z"/>
	<path fill="#BA8973" d="M433.9,848v2.7c0.3,0.2,0.5,0.3,0.8,0.4l0,0c0.1-1.2,1-2.2,2.2-2.4c0.9-0.1,1.5-0.2,1.5-0.2
		S434.8,848.6,433.9,848z"/>
	<path fill="#BA8973" d="M423,865.4c0,0,0.6,0.6,3.7,1c-0.1,0.4-0.1,0.7-0.1,0.7s-2.9-0.2-3.8-0.9L423,865.4z"/>
	<polygon fill="#BA8973" points="443.4,860.8 446.7,860.4 446.9,861.1 443.5,861.5 	"/>
	<path fill="#BA8973" d="M439.1,886.2c0,0,2.2,0.5,4.4-0.3v0.8c0,0-2.3,0.9-4.3,0.2L439.1,886.2z"/>
	<path fill="#BA8973" d="M435.4,887.8c0,0-3.1,1.6-5.6-0.1l0,0.8c0,0,2.5,1.5,5.6,0.3L435.4,887.8z"/>
</g>
<g>
	<ellipse fill="#467450" cx="241.5" cy="750.5" rx="22.9" ry="12.2"/>
	<path fill="#055CBA" d="M212,733.2c0,11.7,13.2,25.3,29.5,25.3S271,745,271,733.2c0-11.7-13.2-13.6-29.5-13.6S212,721.5,212,733.2z
		"/>
	<ellipse fill="#017CFF" cx="241.5" cy="731.8" rx="29.5" ry="15.8"/>
	<ellipse fill="#FFFFFF" cx="241.5" cy="731.8" rx="25.8" ry="13.8"/>
	<path fill="#F8B799" d="M238.3,708.6l-1.6,20.3c0,0-1.7,1.6-3.7-0.6l-0.5-19.8H238.3z"/>
	<path fill="#F8B799" d="M241.9,708l0.8,15.7c0,0,2.4,1.2,3.5-0.7l0-15C246.3,708,243,707.5,241.9,708z"/>
	<path fill="#F1F2F2" d="M246.9,694.9c0,0,0.1,4.1,0,4.4c-0.1,0.3-6.5,1.5-7,2.4c-0.6,0.9-1.1,8.1-1.1,8.1s-4.1,2.4-6.9-0.5v-13.3
		L246.9,694.9z"/>
	<path fill="#E6E7E8" d="M246.9,699.4l0,8.7c0,0-3.9,1.3-6.1,0c0,0-0.1-5.2-0.9-6.3C239.9,701.8,240.9,698.5,246.9,699.4z"/>
	<path fill="#F8B799" d="M229.5,688.7c0,0-1.3,7.8-0.6,11.2c0.7,3.3,0.6,2.9-0.2,3c0,0,0.4,2.1,0,2.3s-2.4-0.3-2.7-2.7
		c-0.4-2.4,0-3,0-3s-1.4-7.2-0.2-11.7C225.8,687.7,227.2,688.3,229.5,688.7z"/>
	<path fill="#055CBA" d="M245.6,673.2c0,0,1.9,0.6,3.3,4.8c0.3,0.9,1.1,4.6,1.1,4.6l-4.2,0.4C245.9,683.1,246.3,673.7,245.6,673.2z"
		/>
	<path fill="#055CBA" d="M233.1,710.3c0.5,0.3,1,0.4,1.5,0.5v-13.3h-1.5V710.3z"/>
	<path fill="#F8B799" d="M249.5,682.7c0,0,0.6,2.5,0.9,3.4c0.4,0.9,2.7,6.9,4,8.2c1.2,1.3,1.8,1.5,1.5,2.1c-0.3,0.5,2.4,2.4,1.4,3.4
		c-0.9,0.9-2.8-0.1-3.3-0.6c-0.5-0.5-1.4-2.4-1.6-2.8c-0.1-0.4-4.3-5.4-5.6-9.5l-0.6-3.9L249.5,682.7z"/>
	<path fill="#F8B799" d="M236.7,670.3c0,0-1.9-0.7-2.4-3.7c-0.5-3,2-6.3,3.8-5.3c0,0-0.9-5.3,3.6-0.9c2.2,2.2,2.7,2.5,2.7,2.5
		s0.3,5.1-0.5,6.5c-0.8,1.3-2.8,1.3-2.8,1.3v1.8c0,0-1,2.3-4.4,0.4V670.3z"/>
	<path fill="#055CBA" d="M246.9,694.9c0,0.3,0,0.5,0,0.5s-10.5,7.6-15,1.2v-0.5L246.9,694.9z"/>
	<path fill="#017CFF" d="M235.4,673.3l1.3-0.4c3.5,1.9,4.4-0.4,4.4-0.4s2.1,0.1,4.5,0.7c0.7,0.7,0.3,7.8,0,14.4
		c-0.2,3.5,1.3,3.8,1.3,7.2c-0.4,0.2-10.5,7.6-15,1.2c0,0,0.8-4.3,0.8-5.7c0-1.3-0.8-5.2-0.8-5.2s-1.4,1.3-1.7,3.6
		c0,0-3.8-0.2-4.7-1.4C225.4,687.3,225.9,674.5,235.4,673.3z"/>
	<path fill="#FF7E4C" d="M236.7,667.2c0,0-0.2,1.3-1.6,1.6c-0.3-0.5-0.7-1.3-0.8-2.2c-0.5-3-1.9-6.9,2.4-8c2.2-0.6,1.3-2.7,4.6-1
		c5.5,2.8,3.1,5.3,3.1,5.3s-4.8,1-6.3,0.2c-1.6-0.8-0.4,2.9-0.4,2.9s-0.3,0.1-0.6,0c0-1.3-1.2-1.2-1.4-0.7
		C235.4,666,236.7,667.2,236.7,667.2z"/>
	<path fill="#017CFF" d="M233.1,728.4l-0.2-7.6h4.5l0,0l-0.6,8.2C236.8,729,235.1,730.6,233.1,728.4z"/>
	<path fill="#F1F2F2" d="M237.5,719.1c0,0-2,1.4-4.7,0v1.7c0,0,1.9,1,4.6,0L237.5,719.1z"/>
	<path fill="#017CFF" d="M246.3,715.2l0,7.9c-0.4,0.7-1,0.9-1.6,1c-0.6,0-1.2-0.3-2-1l0-0.2l-0.4-7.4L246.3,715.2z"/>
	<path fill="#F1F2F2" d="M246.3,713.7l0,1.6c-1.8,0.7-3.3,0.5-4,0.3l-0.1-1.7C244.2,714.6,245.7,714,246.3,713.7z"/>
	<path fill="#055CBA" d="M247.3,723.1c0,0,1.4,0.8,3.2,2.5c1.8,1.6,0.4,3.1-2.2,2.6c-2.6-0.6-3.3-1.2-4.7-1.9
		c-1.4-0.7-1.1-2.2-1.1-3.1c0-0.3,1.1,1,1.9,1C244.1,720.7,247.3,723.1,247.3,723.1z"/>
	<path fill="#055CBA" d="M237.8,728.4c0,0,1.4,0.8,3.2,2.5c1.8,1.6,0.4,3.1-2.2,2.6c-2.6-0.6-3.3-1.2-4.7-1.9
		c-1.4-0.7-1.1-2.2-1.1-3.1c0-0.3,1.1,1,1.9,1C234.7,726,237.8,728.4,237.8,728.4z"/>
	<path fill="#055CBA" d="M232.7,685.6c0,0,0.8,3.5,0.9,4.7c0,1.7-0.9,6.8-0.9,6.8c-0.3-0.3-0.6-0.6-0.9-1c0,0,0,0,0,0
		c0,0,0.8-4.3,0.8-5.7c0-1.3-0.8-5.2-0.8-5.2h0l0,0c0,0,1.1-1.5,1.8-3.4C233.6,681.7,233.6,684.3,232.7,685.6z"/>
	<path fill="#BA8973" d="M236.7,670.3v2.7c0.3,0.2,0.5,0.3,0.8,0.4l0,0c0.1-1.2,1-2.2,2.2-2.4c0.9-0.1,1.5-0.2,1.5-0.2
		S237.6,670.9,236.7,670.3z"/>
	<path fill="#BA8973" d="M225.8,687.7c0,0,0.6,0.6,3.7,1c-0.1,0.4-0.1,0.7-0.1,0.7s-2.9-0.2-3.8-0.9L225.8,687.7z"/>
	<polygon fill="#BA8973" points="246.2,683.1 249.5,682.7 249.7,683.4 246.4,683.8 	"/>
	<path fill="#BA8973" d="M241.9,708.5c0,0,2.2,0.5,4.4-0.2v0.8c0,0-2.3,0.9-4.3,0.2L241.9,708.5z"/>
	<path fill="#BA8973" d="M238.2,710.1c0,0-3.1,1.6-5.6-0.1l0,0.8c0,0,2.5,1.5,5.6,0.3L238.2,710.1z"/>
</g>
<g>
	<ellipse fill="#467450" cx="1308.6" cy="803.3" rx="22.9" ry="12.2"/>
	<path fill="#055CBA" d="M1338.1,786.1c0,11.7-13.2,25.3-29.5,25.3c-16.3,0-29.5-13.5-29.5-25.3c0-11.7,13.2-13.6,29.5-13.6
		C1324.9,772.5,1338.1,774.3,1338.1,786.1z"/>
	<ellipse fill="#017CFF" cx="1308.6" cy="784.6" rx="29.5" ry="15.8"/>
	<ellipse fill="#FFFFFF" cx="1308.6" cy="784.6" rx="25.8" ry="13.8"/>
	<path fill="#F8B799" d="M1311.8,761.5l1.6,20.3c0,0,1.7,1.6,3.7-0.6l0.5-19.8H1311.8z"/>
	<path fill="#F8B799" d="M1308.2,760.9l-0.8,15.7c0,0-2.4,1.2-3.5-0.7l0-15C1303.9,760.9,1307.2,760.4,1308.2,760.9z"/>
	<path fill="#F1F2F2" d="M1303.3,747.8c0,0-0.1,4.1,0,4.4c0.1,0.3,6.5,1.5,7,2.4c0.6,0.9,1.1,8.1,1.1,8.1s4.1,2.4,6.9-0.5v-13.3
		L1303.3,747.8z"/>
	<path fill="#E6E7E8" d="M1303.3,752.2l0,8.7c0,0,3.9,1.3,6.1,0c0,0,0.1-5.2,0.9-6.3C1310.3,754.6,1309.2,751.4,1303.3,752.2z"/>
	<path fill="#F8B799" d="M1320.6,741.6c0,0,1.3,7.8,0.6,11.2c-0.7,3.3-0.6,2.9,0.2,3c0,0-0.4,2.1,0,2.3c0.4,0.2,2.4-0.3,2.7-2.7
		s0-3,0-3s1.4-7.2,0.2-11.7C1324.3,740.6,1323,741.2,1320.6,741.6z"/>
	<path fill="#055CBA" d="M1304.5,726.1c0,0-1.9,0.6-3.3,4.8c-0.3,0.9-1.1,4.6-1.1,4.6l4.2,0.4C1304.3,736,1303.8,726.5,1304.5,726.1
		z"/>
	<path fill="#055CBA" d="M1317.1,763.2c-0.5,0.3-1,0.4-1.5,0.5v-13.3h1.5V763.2z"/>
	<path fill="#F8B799" d="M1300.6,735.6c0,0-0.6,2.5-0.9,3.4c-0.4,0.9-2.7,6.9-4,8.2c-1.2,1.3-1.8,1.5-1.5,2.1
		c0.3,0.5-2.4,2.4-1.4,3.4c0.9,0.9,2.8-0.1,3.3-0.6c0.5-0.5,1.4-2.4,1.6-2.8c0.1-0.4,4.3-5.4,5.6-9.5l0.6-3.9L1300.6,735.6z"/>
	<path fill="#F8B799" d="M1313.5,723.1c0,0,1.9-0.7,2.4-3.7c0.5-3-2-6.3-3.8-5.3c0,0,0.9-5.3-3.6-0.9c-2.2,2.2-2.7,2.5-2.7,2.5
		s-0.3,5.1,0.5,6.5c0.8,1.3,2.8,1.3,2.8,1.3v1.8c0,0,1,2.3,4.4,0.4V723.1z"/>
	<path fill="#055CBA" d="M1303.3,747.8c0,0.3,0,0.5,0,0.5s10.5,7.6,15,1.2v-0.5L1303.3,747.8z"/>
	<path fill="#017CFF" d="M1314.7,726.2l-1.3-0.4c-3.5,1.9-4.4-0.4-4.4-0.4s-2.1,0.1-4.5,0.7c-0.7,0.7-0.3,7.8,0,14.4
		c0.2,3.5-1.3,3.8-1.3,7.2c0.4,0.2,10.5,7.6,15,1.2c0,0-0.8-4.3-0.8-5.7c0-1.3,0.8-5.2,0.8-5.2s1.4,1.3,1.7,3.6c0,0,3.8-0.2,4.7-1.4
		C1324.7,740.2,1324.3,727.4,1314.7,726.2z"/>
	<path fill="#FF7E4C" d="M1313.5,720.1c0,0,0.2,1.3,1.6,1.6c0.3-0.5,0.7-1.3,0.8-2.2c0.5-3,1.9-6.9-2.4-8c-2.2-0.6-1.3-2.7-4.6-1
		c-5.5,2.8-3.1,5.3-3.1,5.3s4.8,1,6.3,0.2c1.6-0.8,0.4,2.9,0.4,2.9s0.3,0.1,0.6,0c0-1.3,1.2-1.2,1.4-0.7
		C1314.8,718.8,1313.5,720.1,1313.5,720.1z"/>
	<path fill="#017CFF" d="M1317,781.2l0.2-7.6h-4.5l0,0l0.6,8.2C1313.3,781.8,1315,783.5,1317,781.2z"/>
	<path fill="#F1F2F2" d="M1312.6,771.9c0,0,2,1.4,4.7,0v1.7c0,0-1.9,1-4.6,0L1312.6,771.9z"/>
	<path fill="#017CFF" d="M1303.9,768.1l0,7.9c0.4,0.7,1,0.9,1.6,1c0.6,0,1.2-0.3,2-1l0-0.2l0.4-7.4L1303.9,768.1z"/>
	<path fill="#F1F2F2" d="M1303.9,766.6l0,1.6c1.8,0.7,3.3,0.5,4,0.3l0.1-1.7C1305.9,767.5,1304.5,766.9,1303.9,766.6z"/>
	<path fill="#055CBA" d="M1302.8,775.9c0,0-1.4,0.8-3.2,2.5c-1.8,1.6-0.4,3.1,2.2,2.6c2.6-0.6,3.3-1.2,4.7-1.9
		c1.4-0.7,1.1-2.2,1.1-3.1c0-0.3-1.1,1-1.9,1C1306,773.5,1302.8,775.9,1302.8,775.9z"/>
	<path fill="#055CBA" d="M1312.3,781.2c0,0-1.4,0.8-3.2,2.5c-1.8,1.6-0.4,3.1,2.2,2.6c2.6-0.6,3.3-1.2,4.7-1.9
		c1.4-0.7,1.1-2.2,1.1-3.1c0-0.3-1.1,1-1.9,1C1315.5,778.8,1312.3,781.2,1312.3,781.2z"/>
	<path fill="#055CBA" d="M1317.4,738.4c0,0-0.8,3.5-0.9,4.7c0,1.7,0.9,6.8,0.9,6.8c0.3-0.3,0.6-0.6,0.9-1c0,0,0,0,0,0
		c0,0-0.8-4.3-0.8-5.7c0-1.3,0.8-5.2,0.8-5.2l0,0l0,0c0,0-1.1-1.5-1.8-3.4C1316.5,734.6,1316.5,737.2,1317.4,738.4z"/>
	<path fill="#BA8973" d="M1313.5,723.1v2.7c-0.3,0.2-0.5,0.3-0.8,0.4l0,0c-0.1-1.2-1-2.2-2.2-2.4c-0.9-0.1-1.5-0.2-1.5-0.2
		S1312.6,723.7,1313.5,723.1z"/>
	<path fill="#BA8973" d="M1324.3,740.6c0,0-0.6,0.6-3.7,1c0.1,0.4,0.1,0.7,0.1,0.7s2.9-0.2,3.8-0.9L1324.3,740.6z"/>
	<polygon fill="#BA8973" points="1303.9,735.9 1300.6,735.6 1300.5,736.2 1303.8,736.6 	"/>
	<path fill="#BA8973" d="M1308.2,761.3c0,0-2.2,0.5-4.4-0.2v0.8c0,0,2.3,0.9,4.3,0.2L1308.2,761.3z"/>
	<path fill="#BA8973" d="M1311.9,763c0,0,3.1,1.6,5.6-0.1l0,0.8c0,0-2.5,1.5-5.6,0.3L1311.9,763z"/>
</g>
<g>
	<ellipse fill="#467450" cx="915.2" cy="907.7" rx="22.9" ry="12.2"/>
	<path fill="#055CBA" d="M944.7,890.5c0,11.7-13.2,25.3-29.5,25.3c-16.3,0-29.5-13.5-29.5-25.3c0-11.7,13.2-13.6,29.5-13.6
		C931.5,876.9,944.7,878.8,944.7,890.5z"/>
	<ellipse fill="#017CFF" cx="915.2" cy="889" rx="29.5" ry="15.8"/>
	<ellipse fill="#FFFFFF" cx="915.2" cy="889" rx="25.8" ry="13.8"/>
	<path fill="#F8B799" d="M918.3,865.9l1.6,20.3c0,0,1.7,1.6,3.7-0.6l0.5-19.8H918.3z"/>
	<path fill="#F8B799" d="M914.8,865.3l-0.8,15.7c0,0-2.4,1.2-3.5-0.7l0-15C910.4,865.3,913.7,864.8,914.8,865.3z"/>
	<path fill="#F1F2F2" d="M909.8,852.2c0,0-0.1,4.1,0,4.4s6.5,1.5,7,2.4s1.1,8.1,1.1,8.1s4.1,2.4,6.9-0.5v-13.3L909.8,852.2z"/>
	<path fill="#E6E7E8" d="M909.8,856.6l0,8.7c0,0,3.9,1.3,6.1,0c0,0,0.1-5.2,0.9-6.3C916.8,859,915.8,855.8,909.8,856.6z"/>
	<path fill="#F8B799" d="M927.1,846c0,0,1.3,7.8,0.6,11.2c-0.7,3.3-0.6,2.9,0.2,3c0,0-0.4,2.1,0,2.3c0.4,0.2,2.4-0.3,2.7-2.7
		s0-3,0-3s1.4-7.2,0.2-11.7C930.9,845,929.5,845.6,927.1,846z"/>
	<path fill="#055CBA" d="M911,830.5c0,0-1.9,0.6-3.3,4.8c-0.3,0.9-1.1,4.6-1.1,4.6l4.2,0.4C910.8,840.4,910.4,831,911,830.5z"/>
	<path fill="#055CBA" d="M923.6,867.6c-0.5,0.3-1,0.4-1.5,0.5v-13.3h1.5V867.6z"/>
	<path fill="#F8B799" d="M907.1,840c0,0-0.6,2.5-0.9,3.4c-0.4,0.9-2.7,6.9-4,8.2c-1.2,1.3-1.8,1.5-1.5,2.1c0.3,0.5-2.4,2.4-1.4,3.4
		c0.9,0.9,2.8-0.1,3.3-0.6c0.5-0.5,1.4-2.4,1.6-2.8c0.1-0.4,4.3-5.4,5.6-9.5l0.6-3.9L907.1,840z"/>
	<path fill="#F8B799" d="M920,827.5c0,0,1.9-0.7,2.4-3.7c0.5-3-2-6.3-3.8-5.3c0,0,0.9-5.3-3.6-0.9c-2.2,2.2-2.7,2.5-2.7,2.5
		s-0.3,5.1,0.5,6.5c0.8,1.3,2.8,1.3,2.8,1.3v1.8c0,0,1,2.3,4.4,0.4V827.5z"/>
	<path fill="#055CBA" d="M909.8,852.2c0,0.3,0,0.5,0,0.5s10.5,7.6,15,1.2v-0.5L909.8,852.2z"/>
	<path fill="#017CFF" d="M921.2,830.6l-1.3-0.4c-3.5,1.9-4.4-0.4-4.4-0.4s-2.1,0.1-4.5,0.7c-0.7,0.7-0.3,7.8,0,14.4
		c0.2,3.5-1.3,3.8-1.3,7.2c0.4,0.2,10.5,7.6,15,1.2c0,0-0.8-4.3-0.8-5.7c0-1.3,0.8-5.2,0.8-5.2s1.4,1.3,1.7,3.6c0,0,3.8-0.2,4.7-1.4
		C931.3,844.6,930.8,831.8,921.2,830.6z"/>
	<path fill="#FF7E4C" d="M920,824.5c0,0,0.2,1.3,1.6,1.6c0.3-0.5,0.7-1.3,0.8-2.2c0.5-3,1.9-6.9-2.4-8c-2.2-0.6-1.3-2.7-4.6-1
		c-5.5,2.8-3.1,5.3-3.1,5.3s4.8,1,6.3,0.2c1.6-0.8,0.4,2.9,0.4,2.9s0.3,0.1,0.6,0c0-1.3,1.2-1.2,1.4-0.7
		C921.3,823.2,920,824.5,920,824.5z"/>
	<path fill="#017CFF" d="M923.6,885.7l0.2-7.6h-4.5l0,0l0.6,8.2C919.9,886.2,921.5,887.9,923.6,885.7z"/>
	<path fill="#F1F2F2" d="M919.1,876.4c0,0,2,1.4,4.7,0v1.7c0,0-1.9,1-4.6,0L919.1,876.4z"/>
	<path fill="#017CFF" d="M910.4,872.5l0,7.9c0.4,0.7,1,0.9,1.6,1c0.6,0,1.2-0.3,2-1l0-0.2l0.4-7.4L910.4,872.5z"/>
	<path fill="#F1F2F2" d="M910.4,871l0,1.6c1.8,0.7,3.3,0.5,4,0.3l0.1-1.7C912.5,871.9,911,871.3,910.4,871z"/>
	<path fill="#055CBA" d="M909.3,880.4c0,0-1.4,0.8-3.2,2.5c-1.8,1.6-0.4,3.1,2.2,2.6c2.6-0.6,3.3-1.2,4.7-1.9
		c1.4-0.7,1.1-2.2,1.1-3.1c0-0.3-1.1,1-1.9,1C912.5,877.9,909.3,880.4,909.3,880.4z"/>
	<path fill="#055CBA" d="M918.8,885.7c0,0-1.4,0.8-3.2,2.5c-1.8,1.6-0.4,3.1,2.2,2.6c2.6-0.6,3.3-1.2,4.7-1.9
		c1.4-0.7,1.1-2.2,1.1-3.1c0-0.3-1.1,1-1.9,1C922,883.3,918.8,885.7,918.8,885.7z"/>
	<path fill="#055CBA" d="M923.9,842.9c0,0-0.8,3.5-0.9,4.7c0,1.7,0.9,6.8,0.9,6.8c0.3-0.3,0.6-0.6,0.9-1c0,0,0,0,0,0
		c0,0-0.8-4.3-0.8-5.7c0-1.3,0.8-5.2,0.8-5.2v0v0c0,0-1.1-1.5-1.8-3.4C923.1,839,923.1,841.6,923.9,842.9z"/>
	<path fill="#BA8973" d="M920,827.5v2.7c-0.3,0.2-0.5,0.3-0.8,0.4l0,0c-0.1-1.2-1-2.2-2.2-2.4c-0.9-0.1-1.5-0.2-1.5-0.2
		S919.1,828.2,920,827.5z"/>
	<path fill="#BA8973" d="M930.9,845c0,0-0.6,0.6-3.7,1c0.1,0.4,0.1,0.7,0.1,0.7s2.9-0.2,3.8-0.9L930.9,845z"/>
	<polygon fill="#BA8973" points="910.4,840.3 907.1,840 907,840.6 910.3,841 	"/>
	<path fill="#BA8973" d="M914.8,865.8c0,0-2.2,0.5-4.4-0.2v0.8c0,0,2.3,0.9,4.3,0.2L914.8,865.8z"/>
	<path fill="#BA8973" d="M918.4,867.4c0,0,3.1,1.6,5.6-0.1l0,0.8c0,0-2.5,1.5-5.6,0.3L918.4,867.4z"/>
</g>
<g>
	<ellipse fill="#467450" cx="97.2" cy="453.3" rx="22.9" ry="12.2"/>
	<path fill="#9B2B00" d="M67.7,436.1c0,11.7,13.2,25.3,29.5,25.3s29.5-13.5,29.5-25.3c0-11.7-13.2-13.6-29.5-13.6
		S67.7,424.4,67.7,436.1z"/>
	<ellipse fill="#CE3900" cx="97.2" cy="434.6" rx="29.5" ry="15.8"/>
	<ellipse fill="#FFFFFF" cx="97.2" cy="434.6" rx="25.8" ry="13.8"/>
	<path fill="#F8B799" d="M94.1,411.5l-1.6,20.3c0,0-1.7,1.6-3.7-0.6l-0.5-19.8H94.1z"/>
	<path fill="#F8B799" d="M97.6,410.9l0.8,15.7c0,0,2.4,1.2,3.5-0.7l0-15C102,410.9,98.7,410.4,97.6,410.9z"/>
	<path fill="#F1F2F2" d="M102.6,397.8c0,0,0.1,4.1,0,4.4c-0.1,0.3-6.5,1.5-7,2.4c-0.6,0.9-1.1,8.1-1.1,8.1s-4.1,2.4-6.9-0.5V399
		L102.6,397.8z"/>
	<path fill="#E6E7E8" d="M102.6,402.2l0,8.7c0,0-3.9,1.3-6.1,0c0,0-0.1-5.2-0.9-6.3C95.6,404.6,96.6,401.4,102.6,402.2z"/>
	<path fill="#F8B799" d="M85.2,391.6c0,0-1.3,7.8-0.6,11.2c0.7,3.3,0.6,2.9-0.2,3c0,0,0.4,2.1,0,2.3c-0.4,0.2-2.4-0.3-2.7-2.7
		c-0.4-2.4,0-3,0-3s-1.4-7.2-0.2-11.7C81.5,390.6,82.9,391.2,85.2,391.6z"/>
	<path fill="#9B2B00" d="M101.4,376.1c0,0,1.9,0.6,3.3,4.8c0.3,0.9,1.1,4.6,1.1,4.6l-4.2,0.4C101.6,386,102,376.6,101.4,376.1z"/>
	<path fill="#CE3900" d="M88.8,413.2c0.5,0.3,1,0.4,1.5,0.5v-13.3h-1.5V413.2z"/>
	<path fill="#F8B799" d="M105.3,385.6c0,0,0.6,2.5,0.9,3.4c0.4,0.9,2.7,6.9,4,8.2c1.2,1.3,1.8,1.5,1.5,2.1c-0.3,0.5,2.4,2.4,1.4,3.4
		c-0.9,0.9-2.8-0.1-3.3-0.6s-1.4-2.4-1.6-2.8s-4.3-5.4-5.6-9.5l-0.6-3.9L105.3,385.6z"/>
	<path fill="#F8B799" d="M92.4,373.1c0,0-1.9-0.7-2.4-3.7c-0.5-3,2.1-6.9,7.6-5.6c3,0.7,2.6,2,2.6,2s0.3,5.1-0.5,6.5
		c-0.8,1.3-2.8,1.3-2.8,1.3v1.8c0,0-1,2.3-4.4,0.4V373.1z"/>
	<path fill="#9B2B00" d="M102.6,397.8c0,0.3,0,0.5,0,0.5s-10.5,7.6-15,1.2V399L102.6,397.8z"/>
	<path fill="#CE3900" d="M91.1,376.2l1.3-0.4c3.5,1.9,4.4-0.4,4.4-0.4s2.1,0.1,4.5,0.7c0.7,0.7,0.3,7.8,0,14.4
		c-0.2,3.5,1.3,3.8,1.3,7.2c-0.4,0.2-10.5,7.6-15,1.2c0,0,0.8-4.3,0.8-5.7c0-1.3-0.8-5.2-0.8-5.2s-1.4,1.3-1.7,3.6
		c0,0-3.8-0.2-4.7-1.4C81.1,390.2,81.6,377.4,91.1,376.2z"/>
	<path fill="#CC9C61" d="M92.4,370.1c0,0-0.2,1.3-1.6,1.6c-0.3-0.5-0.7-1.3-0.8-2.2c-0.5-3-1.9-6.9,2.4-8c2.2-0.6,5.4,0.1,8.9-0.9
		c3-0.8-1.2,5.2-1.2,5.2s-4.8,1-6.3,0.2c-1.6-0.8-0.4,2.9-0.4,2.9s-0.3,0.1-0.6,0c0-1.3-1.2-1.2-1.4-0.7
		C91.1,368.8,92.4,370.1,92.4,370.1z"/>
	<path fill="#CE3900" d="M88.8,431.3l-0.2-7.6h4.5v0l-0.6,8.2C92.5,431.8,90.9,433.5,88.8,431.3z"/>
	<path fill="#F1F2F2" d="M93.3,422c0,0-2,1.4-4.7,0v1.7c0,0,1.9,1,4.6,0L93.3,422z"/>
	<path fill="#CE3900" d="M102,418.1l0,7.9c-0.4,0.7-1,0.9-1.6,1c-0.6,0-1.2-0.3-2-1l0-0.2l-0.4-7.4L102,418.1z"/>
	<path fill="#F1F2F2" d="M102,416.6l0,1.6c-1.8,0.7-3.3,0.5-4,0.3l-0.1-1.7C99.9,417.5,101.4,416.9,102,416.6z"/>
	<path fill="#9B2B00" d="M103,426c0,0,1.4,0.8,3.2,2.5c1.8,1.6,0.4,3.1-2.2,2.6c-2.6-0.6-3.3-1.2-4.7-1.9c-1.4-0.7-1.1-2.2-1.1-3.1
		c0-0.3,1.1,1,1.9,1C99.9,423.5,103,426,103,426z"/>
	<path fill="#9B2B00" d="M93.6,431.3c0,0,1.4,0.8,3.2,2.5c1.8,1.6,0.4,3.1-2.2,2.6s-3.3-1.2-4.7-1.9c-1.4-0.7-1.1-2.2-1.1-3.1
		c0-0.3,1.1,1,1.9,1C90.4,428.9,93.6,431.3,93.6,431.3z"/>
	<path fill="#9B2B00" d="M88.5,388.5c0,0,0.8,3.5,0.9,4.7c0,1.7-0.9,6.8-0.9,6.8c-0.3-0.3-0.6-0.6-0.9-1c0,0,0,0,0,0
		c0,0,0.8-4.3,0.8-5.7c0-1.3-0.8-5.2-0.8-5.2l0,0v0c0,0,1.1-1.5,1.8-3.4C89.3,384.6,89.3,387.2,88.5,388.5z"/>
	<path fill="#BA8973" d="M92.4,373.1v2.7c0.3,0.2,0.5,0.3,0.8,0.4l0,0c0.1-1.2,1-2.2,2.2-2.4c0.9-0.1,1.5-0.2,1.5-0.2
		S93.3,373.7,92.4,373.1z"/>
	<path fill="#BA8973" d="M81.5,390.6c0,0,0.6,0.6,3.7,1c-0.1,0.4-0.1,0.7-0.1,0.7s-2.9-0.2-3.8-0.9L81.5,390.6z"/>
	<polygon fill="#BA8973" points="102,385.9 105.3,385.6 105.4,386.2 102.1,386.6 	"/>
	<path fill="#BA8973" d="M97.6,411.3c0,0,2.2,0.5,4.4-0.3v0.8c0,0-2.3,0.9-4.3,0.2L97.6,411.3z"/>
	<path fill="#BA8973" d="M94,413c0,0-3.1,1.6-5.6-0.1l0,0.8c0,0,2.5,1.5,5.6,0.3L94,413z"/>
</g>
<g>
	<ellipse fill="#467450" cx="870.3" cy="487.7" rx="22.9" ry="12.2"/>
	<path fill="#9B2B00" d="M840.8,470.5c0,11.7,13.2,25.3,29.5,25.3c16.3,0,29.5-13.5,29.5-25.3s-13.2-13.6-29.5-13.6
		C854,456.9,840.8,458.7,840.8,470.5z"/>
	<ellipse fill="#CE3900" cx="870.3" cy="469" rx="29.5" ry="15.8"/>
	<ellipse fill="#FFFFFF" cx="870.3" cy="469" rx="25.8" ry="13.8"/>
	<path fill="#F8B799" d="M867.1,445.9l-1.6,20.3c0,0-1.7,1.6-3.7-0.6l-0.5-19.8H867.1z"/>
	<path fill="#F8B799" d="M870.7,445.3l0.8,15.7c0,0,2.4,1.2,3.5-0.7l0-15C875.1,445.3,871.7,444.8,870.7,445.3z"/>
	<path fill="#F1F2F2" d="M875.7,432.2c0,0,0.1,4.1,0,4.4c-0.1,0.3-6.5,1.5-7,2.4c-0.6,0.9-1.1,8.1-1.1,8.1s-4.1,2.4-6.9-0.5v-13.3
		L875.7,432.2z"/>
	<path fill="#E6E7E8" d="M875.7,436.6l0,8.7c0,0-3.9,1.3-6.1,0c0,0-0.1-5.2-0.9-6.3C868.6,439,869.7,435.7,875.7,436.6z"/>
	<path fill="#F8B799" d="M858.3,425.9c0,0-1.3,7.8-0.6,11.2c0.7,3.3,0.6,2.9-0.2,3c0,0,0.4,2.1,0,2.3c-0.4,0.2-2.4-0.3-2.7-2.7
		c-0.4-2.4,0-3,0-3s-1.4-7.2-0.2-11.7C854.6,424.9,856,425.6,858.3,425.9z"/>
	<path fill="#9B2B00" d="M874.4,410.5c0,0,1.9,0.6,3.3,4.8c0.3,0.9,1.1,4.6,1.1,4.6l-4.2,0.4C874.6,420.3,875.1,410.9,874.4,410.5z"
		/>
	<path fill="#CE3900" d="M861.9,447.5c0.5,0.3,1,0.4,1.5,0.5v-13.3h-1.5V447.5z"/>
	<path fill="#F8B799" d="M878.3,420c0,0,0.6,2.5,0.9,3.4c0.4,0.9,2.7,6.9,4,8.2c1.2,1.3,1.8,1.5,1.5,2.1s2.4,2.4,1.4,3.4
		c-0.9,0.9-2.8-0.1-3.3-0.6c-0.5-0.5-1.4-2.4-1.6-2.8c-0.1-0.4-4.3-5.4-5.6-9.5l-0.6-3.9L878.3,420z"/>
	<path fill="#F8B799" d="M865.5,407.5c0,0-1.9-0.7-2.4-3.7c-0.5-3,2.1-6.9,7.6-5.6c3,0.7,2.6,2,2.6,2s0.3,5.1-0.5,6.5
		c-0.8,1.3-2.8,1.3-2.8,1.3v1.8c0,0-1,2.3-4.4,0.4V407.5z"/>
	<path fill="#9B2B00" d="M875.7,432.2c0,0.3,0,0.5,0,0.5s-10.5,7.6-15,1.2v-0.5L875.7,432.2z"/>
	<path fill="#CE3900" d="M864.2,410.6l1.3-0.4c3.5,1.9,4.4-0.4,4.4-0.4s2.1,0.1,4.5,0.7c0.7,0.7,0.3,7.8,0,14.4
		c-0.2,3.5,1.3,3.8,1.3,7.2c-0.4,0.2-10.5,7.6-15,1.2c0,0,0.8-4.3,0.8-5.7c0-1.3-0.8-5.2-0.8-5.2s-1.4,1.3-1.7,3.6
		c0,0-3.8-0.2-4.7-1.4C854.2,424.6,854.7,411.7,864.2,410.6z"/>
	<path fill="#CC9C61" d="M865.5,404.4c0,0-0.2,1.3-1.6,1.6c-0.3-0.5-0.7-1.3-0.8-2.2c-0.5-3-1.9-6.9,2.4-8c2.2-0.6,5.4,0.1,8.9-0.9
		c3-0.8-1.2,5.2-1.2,5.2s-4.8,1-6.3,0.2c-1.6-0.8-0.4,2.9-0.4,2.9s-0.3,0.1-0.6,0c0-1.3-1.2-1.2-1.4-0.7
		C864.2,403.2,865.5,404.4,865.5,404.4z"/>
	<path fill="#CE3900" d="M861.9,465.6l-0.2-7.6h4.5v0l-0.6,8.2C865.6,466.2,863.9,467.8,861.9,465.6z"/>
	<path fill="#F1F2F2" d="M866.3,456.3c0,0-2,1.4-4.7,0v1.7c0,0,1.9,1,4.6,0L866.3,456.3z"/>
	<path fill="#CE3900" d="M875,452.4l0,7.9c-0.4,0.7-1,0.9-1.6,1c-0.6,0-1.2-0.3-2-1l0-0.2l-0.4-7.4L875,452.4z"/>
	<path fill="#F1F2F2" d="M875.1,450.9l0,1.6c-1.8,0.7-3.3,0.5-4,0.3l-0.1-1.7C873,451.9,874.5,451.3,875.1,450.9z"/>
	<path fill="#9B2B00" d="M876.1,460.3c0,0,1.4,0.8,3.2,2.5s0.4,3.1-2.2,2.6c-2.6-0.6-3.3-1.2-4.7-1.9c-1.4-0.7-1.1-2.2-1.1-3.1
		c0-0.3,1.1,1,1.9,1C872.9,457.9,876.1,460.3,876.1,460.3z"/>
	<path fill="#9B2B00" d="M866.6,465.6c0,0,1.4,0.8,3.2,2.5c1.8,1.6,0.4,3.1-2.2,2.6s-3.3-1.2-4.7-1.9c-1.4-0.7-1.1-2.2-1.1-3.1
		c0-0.3,1.1,1,1.9,1C863.4,463.2,866.6,465.6,866.6,465.6z"/>
	<path fill="#9B2B00" d="M861.5,422.8c0,0,0.8,3.5,0.9,4.7c0,1.7-0.9,6.8-0.9,6.8c-0.3-0.3-0.6-0.6-0.9-1c0,0,0,0,0,0
		c0,0,0.8-4.3,0.8-5.7c0-1.3-0.8-5.2-0.8-5.2v0v0c0,0,1.1-1.5,1.8-3.4C862.4,419,862.4,421.5,861.5,422.8z"/>
	<path fill="#BA8973" d="M865.5,407.5v2.7c0.3,0.2,0.5,0.3,0.8,0.4l0,0c0.1-1.2,1-2.2,2.2-2.4c0.9-0.1,1.5-0.2,1.5-0.2
		S866.4,408.1,865.5,407.5z"/>
	<path fill="#BA8973" d="M854.6,424.9c0,0,0.6,0.6,3.7,1c-0.1,0.4-0.1,0.7-0.1,0.7s-2.9-0.2-3.8-0.9L854.6,424.9z"/>
	<polygon fill="#BA8973" points="875,420.3 878.3,420 878.5,420.6 875.1,421 	"/>
	<path fill="#BA8973" d="M870.7,445.7c0,0,2.2,0.5,4.4-0.2v0.8c0,0-2.3,0.9-4.3,0.2L870.7,445.7z"/>
	<path fill="#BA8973" d="M867,447.4c0,0-3.1,1.6-5.6-0.1l0,0.8c0,0,2.5,1.5,5.6,0.3L867,447.4z"/>
</g>
<g>
	<ellipse fill="#467450" cx="531.8" cy="426.9" rx="22.9" ry="12.2"/>
	<path fill="#9B2B00" d="M502.3,409.7c0,11.7,13.2,25.3,29.5,25.3s29.5-13.5,29.5-25.3s-13.2-13.6-29.5-13.6S502.3,398,502.3,409.7z
		"/>
	<ellipse fill="#CE3900" cx="531.8" cy="408.2" rx="29.5" ry="15.8"/>
	<ellipse fill="#FFFFFF" cx="531.8" cy="408.2" rx="25.8" ry="13.8"/>
	<path fill="#F8B799" d="M528.7,385.1l-1.6,20.3c0,0-1.7,1.6-3.7-0.6l-0.5-19.8H528.7z"/>
	<path fill="#F8B799" d="M532.2,384.5l0.8,15.7c0,0,2.4,1.2,3.5-0.7l0-15C536.6,384.5,533.3,384,532.2,384.5z"/>
	<path fill="#F1F2F2" d="M537.2,371.4c0,0,0.1,4.1,0,4.4c-0.1,0.3-6.5,1.5-7,2.4s-1.1,8.1-1.1,8.1s-4.1,2.4-6.9-0.5v-13.3
		L537.2,371.4z"/>
	<path fill="#E6E7E8" d="M537.2,375.8l0,8.7c0,0-3.9,1.3-6.1,0c0,0-0.1-5.2-0.9-6.3C530.2,378.2,531.2,375,537.2,375.8z"/>
	<path fill="#F8B799" d="M519.8,365.2c0,0-1.3,7.8-0.6,11.2c0.7,3.3,0.6,2.9-0.2,3c0,0,0.4,2.1,0,2.3c-0.4,0.2-2.4-0.3-2.7-2.7
		c-0.4-2.4,0-3,0-3s-1.4-7.2-0.2-11.7C516.1,364.2,517.5,364.8,519.8,365.2z"/>
	<path fill="#9B2B00" d="M536,349.7c0,0,1.9,0.6,3.3,4.8c0.3,0.9,1.1,4.6,1.1,4.6l-4.2,0.4C536.2,359.6,536.6,350.1,536,349.7z"/>
	<path fill="#CE3900" d="M523.4,386.8c0.5,0.3,1,0.4,1.5,0.5v-13.3h-1.5V386.8z"/>
	<path fill="#F8B799" d="M539.9,359.2c0,0,0.6,2.5,0.9,3.4s2.7,6.9,4,8.2c1.2,1.3,1.8,1.5,1.5,2.1c-0.3,0.5,2.4,2.4,1.4,3.4
		c-0.9,0.9-2.8-0.1-3.3-0.6c-0.5-0.5-1.4-2.4-1.6-2.8c-0.1-0.4-4.3-5.4-5.6-9.5l-0.6-3.9L539.9,359.2z"/>
	<path fill="#F8B799" d="M527,346.7c0,0-1.9-0.7-2.4-3.7c-0.5-3,2.1-6.9,7.6-5.6c3,0.7,2.6,2,2.6,2s0.3,5.1-0.5,6.5
		c-0.8,1.3-2.8,1.3-2.8,1.3v1.8c0,0-1,2.3-4.4,0.4V346.7z"/>
	<path fill="#9B2B00" d="M537.2,371.4c0,0.3,0,0.5,0,0.5s-10.5,7.6-15,1.2v-0.5L537.2,371.4z"/>
	<path fill="#CE3900" d="M525.7,349.8l1.3-0.4c3.5,1.9,4.4-0.4,4.4-0.4s2.1,0.1,4.5,0.7c0.7,0.7,0.3,7.8,0,14.4
		c-0.2,3.5,1.3,3.8,1.3,7.2c-0.4,0.2-10.5,7.6-15,1.2c0,0,0.8-4.3,0.8-5.7c0-1.3-0.8-5.2-0.8-5.2s-1.4,1.3-1.7,3.6
		c0,0-3.8-0.2-4.7-1.4C515.7,363.8,516.2,351,525.7,349.8z"/>
	<path fill="#BE1E2D" d="M527,343.7c0,0-0.2,1.3-1.6,1.6c-0.3-0.5-0.7-1.3-0.8-2.2c-0.5-3-1.9-6.9,2.4-8c2.2-0.6,5.4,0.1,8.9-0.9
		c3-0.8-1.2,5.2-1.2,5.2s-4.8,1-6.3,0.2c-1.6-0.8-0.4,2.9-0.4,2.9s-0.3,0.1-0.6,0c0-1.3-1.2-1.2-1.4-0.7
		C525.7,342.4,527,343.7,527,343.7z"/>
	<path fill="#CE3900" d="M523.4,404.9l-0.2-7.6h4.5l0,0l-0.6,8.2C527.1,405.4,525.5,407.1,523.4,404.9z"/>
	<path fill="#F1F2F2" d="M527.9,395.6c0,0-2,1.4-4.7,0v1.7c0,0,1.9,1,4.6,0L527.9,395.6z"/>
	<path fill="#CE3900" d="M536.6,391.7l0,7.9c-0.4,0.7-1,0.9-1.6,1c-0.6,0-1.2-0.3-2-1l0-0.2l-0.4-7.4L536.6,391.7z"/>
	<path fill="#F1F2F2" d="M536.6,390.2l0,1.6c-1.8,0.7-3.3,0.5-4,0.3l-0.1-1.7C534.5,391.1,536,390.5,536.6,390.2z"/>
	<path fill="#9B2B00" d="M537.7,399.5c0,0,1.4,0.8,3.2,2.5c1.8,1.6,0.4,3.1-2.2,2.6s-3.3-1.2-4.7-1.9c-1.4-0.7-1.1-2.2-1.1-3.1
		c0-0.3,1.1,1,1.9,1C534.5,397.1,537.7,399.5,537.7,399.5z"/>
	<path fill="#9B2B00" d="M528.2,404.9c0,0,1.4,0.8,3.2,2.5c1.8,1.6,0.4,3.1-2.2,2.6c-2.6-0.6-3.3-1.2-4.7-1.9
		c-1.4-0.7-1.1-2.2-1.1-3.1c0-0.3,1.1,1,1.9,1C525,402.4,528.2,404.9,528.2,404.9z"/>
	<path fill="#9B2B00" d="M523.1,362c0,0,0.8,3.5,0.9,4.7c0,1.7-0.9,6.8-0.9,6.8c-0.3-0.3-0.6-0.6-0.9-1c0,0,0,0,0,0
		c0,0,0.8-4.3,0.8-5.7c0-1.3-0.8-5.2-0.8-5.2v0v0c0,0,1.1-1.5,1.8-3.4C523.9,358.2,523.9,360.8,523.1,362z"/>
	<path fill="#BA8973" d="M527,346.7v2.7c0.3,0.2,0.5,0.3,0.8,0.4l0,0c0.1-1.2,1-2.2,2.2-2.4c0.9-0.1,1.5-0.2,1.5-0.2
		S527.9,347.3,527,346.7z"/>
	<path fill="#BA8973" d="M516.1,364.2c0,0,0.6,0.6,3.7,1c-0.1,0.4-0.1,0.7-0.1,0.7s-2.9-0.2-3.8-0.9L516.1,364.2z"/>
	<polygon fill="#BA8973" points="536.6,359.5 539.9,359.2 540,359.8 536.7,360.2 	"/>
	<path fill="#BA8973" d="M532.2,384.9c0,0,2.2,0.5,4.4-0.2v0.8c0,0-2.3,0.9-4.3,0.2L532.2,384.9z"/>
	<path fill="#BA8973" d="M528.6,386.6c0,0-3.1,1.6-5.6-0.1l0,0.8c0,0,2.5,1.5,5.6,0.3L528.6,386.6z"/>
</g>
<g>
	<ellipse fill="#467450" cx="1189.2" cy="755.5" rx="22.9" ry="12.2"/>
	<path fill="#9B2B00" d="M1218.8,738.3c0,11.7-13.2,25.3-29.5,25.3c-16.3,0-29.5-13.5-29.5-25.3s13.2-13.6,29.5-13.6
		C1205.5,724.7,1218.8,726.5,1218.8,738.3z"/>
	<ellipse fill="#CE3900" cx="1189.2" cy="736.8" rx="29.5" ry="15.8"/>
	<ellipse fill="#FFFFFF" cx="1189.2" cy="736.8" rx="25.8" ry="13.8"/>
	<path fill="#F8B799" d="M1192.4,713.7l1.6,20.3c0,0,1.7,1.6,3.7-0.6l0.5-19.8H1192.4z"/>
	<path fill="#F8B799" d="M1188.9,713.1l-0.8,15.7c0,0-2.4,1.2-3.5-0.7l0-15C1184.5,713.1,1187.8,712.6,1188.9,713.1z"/>
	<path fill="#F1F2F2" d="M1183.9,700c0,0-0.1,4.1,0,4.4c0.1,0.3,6.5,1.5,7,2.4c0.6,0.9,1.1,8.1,1.1,8.1s4.1,2.4,6.9-0.5v-13.3
		L1183.9,700z"/>
	<path fill="#E6E7E8" d="M1183.9,704.4l0,8.7c0,0,3.9,1.3,6.1,0c0,0,0.1-5.2,0.9-6.3C1190.9,706.8,1189.8,703.5,1183.9,704.4z"/>
	<path fill="#F8B799" d="M1201.2,693.8c0,0,1.3,7.8,0.6,11.2c-0.7,3.3-0.6,2.9,0.2,3c0,0-0.4,2.1,0,2.3c0.4,0.2,2.4-0.3,2.7-2.7
		s0-3,0-3s1.4-7.2,0.2-11.7C1204.9,692.7,1203.6,693.4,1201.2,693.8z"/>
	<path fill="#9B2B00" d="M1185.1,678.3c0,0-1.9,0.6-3.3,4.8c-0.3,0.9-1.1,4.6-1.1,4.6l4.2,0.4
		C1184.9,688.1,1184.4,678.7,1185.1,678.3z"/>
	<path fill="#CE3900" d="M1197.7,715.3c-0.5,0.3-1,0.4-1.5,0.5v-13.3h1.5V715.3z"/>
	<path fill="#F8B799" d="M1181.2,687.8c0,0-0.6,2.5-0.9,3.4c-0.4,0.9-2.7,6.9-4,8.2c-1.2,1.3-1.8,1.5-1.5,2.1
		c0.3,0.5-2.4,2.4-1.4,3.4c0.9,0.9,2.8-0.1,3.3-0.6c0.5-0.5,1.4-2.4,1.6-2.8c0.1-0.4,4.3-5.4,5.6-9.5l0.6-3.9L1181.2,687.8z"/>
	<path fill="#F8B799" d="M1194.1,675.3c0,0,1.9-0.7,2.4-3.7c0.5-3-2.1-6.9-7.6-5.6c-3,0.7-2.6,2-2.6,2s-0.3,5.1,0.5,6.5
		c0.8,1.3,2.8,1.3,2.8,1.3v1.8c0,0,1,2.3,4.4,0.4V675.3z"/>
	<path fill="#9B2B00" d="M1183.9,700c0,0.3,0,0.5,0,0.5s10.5,7.6,15,1.2v-0.5L1183.9,700z"/>
	<path fill="#CE3900" d="M1195.3,678.4l-1.3-0.4c-3.5,1.9-4.4-0.4-4.4-0.4s-2.1,0.1-4.5,0.7c-0.7,0.7-0.3,7.8,0,14.4
		c0.2,3.5-1.3,3.8-1.3,7.2c0.4,0.2,10.5,7.6,15,1.2c0,0-0.8-4.3-0.8-5.7c0-1.3,0.8-5.2,0.8-5.2s1.4,1.3,1.7,3.6c0,0,3.8-0.2,4.7-1.4
		C1205.4,692.4,1204.9,679.5,1195.3,678.4z"/>
	<path fill="#CC9C61" d="M1194.1,672.2c0,0,0.2,1.3,1.6,1.6c0.3-0.5,0.7-1.3,0.8-2.2c0.5-3,1.9-6.9-2.4-8c-2.2-0.6-5.4,0.1-8.9-0.9
		c-3-0.8,1.2,5.2,1.2,5.2s4.8,1,6.3,0.2c1.6-0.8,0.4,2.9,0.4,2.9s0.3,0.1,0.6,0c0-1.3,1.2-1.2,1.4-0.7
		C1195.4,671,1194.1,672.2,1194.1,672.2z"/>
	<path fill="#CE3900" d="M1197.6,733.4l0.2-7.6h-4.5l0,0l0.6,8.2C1194,734,1195.6,735.6,1197.6,733.4z"/>
	<path fill="#F1F2F2" d="M1193.2,724.1c0,0,2,1.4,4.7,0v1.7c0,0-1.9,1-4.6,0L1193.2,724.1z"/>
	<path fill="#CE3900" d="M1184.5,720.3l0,7.9c0.4,0.7,1,0.9,1.6,1c0.6,0,1.2-0.3,2-1l0-0.2l0.4-7.4L1184.5,720.3z"/>
	<path fill="#F1F2F2" d="M1184.5,718.7l0,1.6c1.8,0.7,3.3,0.5,4,0.3l0.1-1.7C1186.6,719.7,1185.1,719.1,1184.5,718.7z"/>
	<path fill="#9B2B00" d="M1183.4,728.1c0,0-1.4,0.8-3.2,2.5c-1.8,1.6-0.4,3.1,2.2,2.6c2.6-0.6,3.3-1.2,4.7-1.9
		c1.4-0.7,1.1-2.2,1.1-3.1c0-0.3-1.1,1-1.9,1C1186.6,725.7,1183.4,728.1,1183.4,728.1z"/>
	<path fill="#9B2B00" d="M1192.9,733.4c0,0-1.4,0.8-3.2,2.5c-1.8,1.6-0.4,3.1,2.2,2.6c2.6-0.6,3.3-1.2,4.7-1.9
		c1.4-0.7,1.1-2.2,1.1-3.1c0-0.3-1.1,1-1.9,1C1196.1,731,1192.9,733.4,1192.9,733.4z"/>
	<path fill="#9B2B00" d="M1198,690.6c0,0-0.8,3.5-0.9,4.7c0,1.7,0.9,6.8,0.9,6.8c0.3-0.3,0.6-0.6,0.9-1c0,0,0,0,0,0
		c0,0-0.8-4.3-0.8-5.7c0-1.3,0.8-5.2,0.8-5.2l0,0l0,0c0,0-1.1-1.5-1.8-3.4C1197.1,686.8,1197.1,689.3,1198,690.6z"/>
	<path fill="#BA8973" d="M1194.1,675.3v2.7c-0.3,0.2-0.5,0.3-0.8,0.4v0c-0.1-1.2-1-2.2-2.2-2.4c-0.9-0.1-1.5-0.2-1.5-0.2
		S1193.2,675.9,1194.1,675.3z"/>
	<path fill="#BA8973" d="M1204.9,692.7c0,0-0.6,0.6-3.7,1c0.1,0.4,0.1,0.7,0.1,0.7s2.9-0.2,3.8-0.9L1204.9,692.7z"/>
	<polygon fill="#BA8973" points="1184.5,688.1 1181.2,687.8 1181.1,688.4 1184.4,688.8 	"/>
	<path fill="#BA8973" d="M1188.8,713.5c0,0-2.2,0.5-4.4-0.3v0.8c0,0,2.3,0.9,4.3,0.2L1188.8,713.5z"/>
	<path fill="#BA8973" d="M1192.5,715.2c0,0,3.1,1.6,5.6-0.1l0,0.8c0,0-2.5,1.5-5.6,0.3L1192.5,715.2z"/>
</g>
<ellipse fill="#467450" cx="246.2" cy="196.8" rx="22.9" ry="12.2"/>
<path fill="#9B2B00" d="M216.7,179.5c0,11.7,13.2,25.3,29.5,25.3s29.5-13.5,29.5-25.3c0-11.7-13.2-13.6-29.5-13.6
	S216.7,167.8,216.7,179.5z"/>
<ellipse fill="#CE3900" cx="246.2" cy="178.1" rx="29.5" ry="15.8"/>
<ellipse fill="#FFFFFF" cx="246.2" cy="178.1" rx="25.8" ry="13.8"/>
<path fill="#F8B799" d="M243,154.9l-1.6,20.3c0,0-1.7,1.6-3.7-0.6l-0.5-19.8H243z"/>
<path fill="#F8B799" d="M246.6,154.3l0.8,15.7c0,0,2.4,1.2,3.5-0.7l0-15C251,154.3,247.6,153.8,246.6,154.3z"/>
<path fill="#F1F2F2" d="M251.6,141.2c0,0,0.1,4.1,0,4.4c-0.1,0.3-6.5,1.5-7,2.4c-0.6,0.9-1.1,8.1-1.1,8.1s-4.1,2.4-6.9-0.5v-13.3
	L251.6,141.2z"/>
<path fill="#E6E7E8" d="M251.6,145.7l0,8.7c0,0-3.9,1.3-6.1,0c0,0-0.1-5.2-0.9-6.3C244.5,148.1,245.6,144.8,251.6,145.7z"/>
<path fill="#F8B799" d="M241.4,116.6c0,0-1.9-0.7-2.4-3.7c-0.5-3,2-6.3,3.8-5.3c0,0-1.8-2.9,3.6,0.4c1.8,1.1,2.8,1.3,2.8,1.3
	s0.3,5.1-0.5,6.5c-0.8,1.3-2.8,1.3-2.8,1.3v1.8c0,0-1,2.3-4.4,0.4V116.6z"/>
<path fill="#231F20" d="M251.6,141.2c0,0.3,0,0.5,0,0.5s-10.5,7.6-15,1.2v-0.5L251.6,141.2z"/>
<path fill="#43484B" d="M241.4,113.5c0,0-0.2,1.3-1.6,1.6c-0.3-0.5-0.7-1.3-0.8-2.2c-0.5-3-0.3-6.5,1.7-6c1.3-2.1,3.7-2.8,6.7-0.7
	c2.4,1.7,1.8,3,1.8,3s-4.8,1-6.3,0.2c-1.6-0.8-0.4,2.9-0.4,2.9s-0.3,0.1-0.6,0c0-1.3-1.2-1.2-1.4-0.7
	C240.1,112.3,241.4,113.5,241.4,113.5z"/>
<path fill="#FFF200" d="M237.8,174.7l-0.2-7.6h4.5l0,0l-0.6,8.2C241.5,175.3,239.8,176.9,237.8,174.7z"/>
<path fill="#F1F2F2" d="M242.2,165.4c0,0-2,1.4-4.7,0v1.7c0,0,1.9,1,4.6,0L242.2,165.4z"/>
<path fill="#FFF200" d="M250.9,161.5l0,7.9c-0.4,0.7-1,0.9-1.6,1c-0.6,0-1.2-0.3-2-1l0-0.2l-0.4-7.4L250.9,161.5z"/>
<path fill="#F1F2F2" d="M250.9,160l0,1.6c-1.8,0.7-3.3,0.5-4,0.3l-0.1-1.7C248.9,160.9,250.3,160.3,250.9,160z"/>
<path fill="#414042" d="M252,169.4c0,0,1.4,0.8,3.2,2.5s0.4,3.1-2.2,2.6s-3.3-1.2-4.7-1.9c-1.4-0.7-1.1-2.2-1.1-3.1
	c0-0.3,1.1,1,1.9,1C248.8,167,252,169.4,252,169.4z"/>
<path fill="#414042" d="M242.5,174.7c0,0,1.4,0.8,3.2,2.5c1.8,1.6,0.4,3.1-2.2,2.6c-2.6-0.6-3.3-1.2-4.7-1.9
	c-1.4-0.7-1.1-2.2-1.1-3.1c0-0.3,1.1,1,1.9,1C239.3,172.3,242.5,174.7,242.5,174.7z"/>
<path fill="#BA8973" d="M241.4,116.6v2.7c0.3,0.2,0.5,0.3,0.8,0.4l0,0c0.1-1.2,1-2.2,2.2-2.4c0.9-0.1,1.5-0.2,1.5-0.2
	S242.3,117.2,241.4,116.6z"/>
<path fill="#BA8973" d="M246.6,154.8c0,0,2.2,0.5,4.4-0.3v0.8c0,0-2.3,0.9-4.3,0.2L246.6,154.8z"/>
<path fill="#BA8973" d="M242.9,156.4c0,0-3.1,1.6-5.6-0.1l0,0.8c0,0,2.5,1.5,5.6,0.3L242.9,156.4z"/>
<polyline fill="none" stroke="#FFFFFF" stroke-width="5" stroke-linejoin="round" stroke-miterlimit="10" points="139,200.7 
	180.6,230.5 344,186.3 302.5,156.5 "/>
<polyline fill="none" stroke="#FFFFFF" stroke-width="5" stroke-linejoin="round" stroke-miterlimit="10" points="60.3,221.4 
	142,280 463.3,193.1 381.6,134.5 "/>
<path fill="#414042" d="M250.3,134c0.3-6.6,0.7-13.7,0-14.4c-2.5-0.5-4.5-0.7-4.5-0.7s-1,2.3-4.4,0.4l-1.3,0.4c-9.5,1.2-10,14-10,14
	s-0.3,8.6,0.6,12.1h3.5c0,0,0.2-8,0.6-10.7c0.3-2.2,1.7-3.6,1.7-3.6s0.8,3.9,0.8,5.2c0,1.4-0.8,5.7-0.8,5.7c4.5,6.5,14.7-0.9,15-1.2
	C251.6,137.7,250.2,137.5,250.3,134z"/>
<path fill="#231F20" d="M254.7,129c0,0-0.8-3.8-1.1-4.6c-1.4-4.2-3.3-4.8-3.3-4.8c0.7,0.4,0.2,9.9,0.2,9.9
	c0.3,7.1,6.6,13.3,6.6,13.3l2-2.1C257.3,137.9,254.7,129,254.7,129z"/>
<path fill="#F1F2F2" d="M230.6,146.1c-0.1,0.4-0.1,1.2,0.1,2.7c0.4,2.4,2.4,2.9,2.7,2.7c0.4-0.2,0-2.3,0-2.3c0.9-0.1,0.9,0.3,0.2-3
	c0-0.2-0.1-0.4-0.1-0.6l-2.9,0.1L230.6,146.1z"/>
<path fill="#F1F2F2" d="M258.8,145.5c0.5,0.5,2.4,1.5,3.3,0.6s-1.7-2.8-1.4-3.4c0.3-0.5-0.3-0.8-1.5-2.1l-2,2.1
	C257.3,143.1,258.3,145,258.8,145.5z"/>
<path fill="#231F20" d="M237.4,131.9c0,0,0.8,3.5,0.9,4.7c0,1.7-0.9,6.8-0.9,6.8c-0.3-0.3-0.6-0.6-0.9-1c0,0,0,0,0,0
	c0,0,0.8-4.3,0.8-5.7c0-1.3-0.8-5.2-0.8-5.2l0,0v0c0,0,1.1-1.5,1.8-3.4C238.3,128,238.3,130.6,237.4,131.9z"/>
<path fill="none" stroke="#FFFFFF" stroke-width="5" stroke-linejoin="round" stroke-miterlimit="10" d="M350,224.2
	c13,16.6,2.6,35.9-23.2,43.2c-25.9,7.3-57.4-0.2-70.4-16.8"/>
<path fill="none" stroke="#FFFFFF" stroke-width="5" stroke-linejoin="round" stroke-miterlimit="10" d="M1028,610.3
	c40.9,43.6,23.6,98.7-38.7,123.1s-146,9-186.9-34.6c-40.9-43.6-23.6-98.7,38.7-123.1S987.1,566.8,1028,610.3z"/>
<path fill="#FFFFFF" d="M926.6,645c4.8,5.1,2.8,11.6-4.5,14.5s-17.1,1.1-21.9-4.1c-4.8-5.1-2.8-11.6,4.5-14.5S921.8,639.9,926.6,645
	z"/>
<g>
	<ellipse fill="#467450" cx="1039.5" cy="473.4" rx="10.6" ry="1.3"/>
	<g transform="matrix(1, 0, 0, 1, 0, 0)">
		<g transform="matrix(3.7895045280456543, 0, 0, 3.7895045280456543, -2108.720703125, 1229.9249267578125)">
			<g id="g-5" transform="matrix(1, 0, 0, 1, 0, 0)">
				<g id="g-6">
					<path fill="#FFFFFF" d="M830.8-205.7c1.6,0,3,1.3,3,3s-1.3,3-3,3s-3-1.3-3-3S829.1-205.7,830.8-205.7z"/>
				</g>
			</g>
		</g>
		<g id="XMLID_714_" transform="matrix(1.9042465686798096, 0, 0, 1.9042465686798096, -729.3277587890625, 1219.95166015625)">
			<g id="XMLID_834_">
				<path id="XMLID_835_" d="M931.9-403.5c-3-1.7-6.7-0.6-8.4,2.4s-0.6,6.7,2.4,8.4c0.9,0.5,2,0.8,3,0.8c2.2,0,4.3-1.1,5.4-3.2
					C935.9-398.1,934.9-401.9,931.9-403.5z M934.1-396l-1.2,0.6l-0.8-1l0.4-2.3c0.4-0.4,0.9-0.8,1.1-1l0.9,0.5
					C934.7-398.1,934.6-397,934.1-396z M933.8-400.1c-0.2-0.5-0.8-1.6-1-1.9l0.1-0.2c0.7,0.7,1.2,1.5,1.5,2.4L933.8-400.1z
					 M932.4-402.4c-0.7-0.3-1.6-0.2-1.8-0.2l-1.6-0.9l0-0.3c0,0,0,0,0.1,0c0.9,0,1.9,0.2,2.7,0.7c0.3,0.2,0.6,0.4,0.8,0.6
					L932.4-402.4z M923.3-398.7l0.9,0.3l1,2l-0.4,1.5l-0.5,0C923.5-396.1,923.2-397.4,923.3-398.7z M925.3-394.8l0.4-1.5l1.9-0.3
					l1.7,1.4l-0.3,1.6l-1.8,0.3C926.9-393.5,926-394,925.3-394.8z M926.5-402.3c0.6-0.5,1.8-0.7,2.1-0.8l1.6,0.9l-0.1,1.8l-2.1,0.7
					l-1.8-1L926.5-402.3z M926.6-403.3C926.6-403.3,926.6-403.3,926.6-403.3L926.6-403.3z M927.9-396.9l0.4-2.4l2.1-0.7
					c0.9,0.6,1.5,1.1,1.7,1.3l-0.4,2.3c-0.4,0.3-1.5,0.7-2,0.9L927.9-396.9z M925.1-402.4l0.9,0.1l-0.2,1.6l-1.6,1.8l-0.9-0.4
					c0.1-0.6,0.3-1.2,0.6-1.7C924.3-401.5,924.7-402,925.1-402.4z M927.4-392.9l1.8-0.3c0.6,0.2,1.2,0.2,1.6,0.2c0.1,0,0.2,0,0.3,0
					c-0.7,0.3-1.4,0.4-2.1,0.4C928.4-392.5,927.9-392.6,927.4-392.9L927.4-392.9z M931.6-393.2c0.9-0.8,1.3-1.5,1.4-1.7l0.7-0.4
					C933.2-394.4,932.5-393.7,931.6-393.2z"/>
			</g>
		</g>
	</g>
</g>
<g>
	<g>
		<ellipse fill="#467450" cx="1096.2" cy="102.8" rx="22.9" ry="12.2"/>
		<path fill="#BFB500" d="M1125.7,85.6c0,11.7-13.2,25.3-29.5,25.3c-16.3,0-29.5-13.5-29.5-25.3s13.2-13.6,29.5-13.6
			C1112.5,72,1125.7,73.8,1125.7,85.6z"/>
		<ellipse fill="#FFF200" cx="1096.2" cy="84.1" rx="29.5" ry="15.8"/>
		<ellipse fill="#FFFFFF" cx="1096.2" cy="84.1" rx="25.8" ry="13.8"/>
		<path fill="#F8B799" d="M1099.4,61l1.6,20.3c0,0,1.7,1.6,3.7-0.6l0.5-19.8H1099.4z"/>
		<path fill="#F8B799" d="M1095.8,60.4l-0.8,15.7c0,0-2.4,1.2-3.5-0.7l0-15C1091.4,60.4,1094.8,59.9,1095.8,60.4z"/>
		<path fill="#231F20" d="M1090.8,47.3c0,0-0.1,4.1,0,4.4c0.1,0.3,6.5,1.5,7,2.4c0.6,0.9,1.1,8.1,1.1,8.1s4.1,2.4,6.9-0.5V48.4
			L1090.8,47.3z"/>
		<path fill="#030000" d="M1090.8,51.7l0,8.7c0,0,3.9,1.3,6.1,0c0,0,0.1-5.2,0.9-6.3C1097.9,54.1,1096.8,50.8,1090.8,51.7z"/>
		<path fill="#F8B799" d="M1108.2,41c0,0,1.3,7.8,0.6,11.2c-0.7,3.3-0.6,2.9,0.2,3c0,0-0.4,2.1,0,2.3s2.4-0.3,2.7-2.7
			c0.4-2.4,0-3,0-3s1.4-7.2,0.2-11.7C1111.9,40,1110.5,40.7,1108.2,41z"/>
		<path fill="#BFB500" d="M1092.1,25.6c0,0-1.9,0.6-3.3,4.8c-0.3,0.9-1.1,4.6-1.1,4.6l4.2,0.4C1091.9,35.4,1091.4,26,1092.1,25.6z"
			/>
		<path fill="#F8B799" d="M1088.2,35c0,0-0.6,2.5-0.9,3.4c-0.4,0.9-2.7,6.9-4,8.2c-1.2,1.3-1.8,1.5-1.5,2.1s-2.4,2.4-1.4,3.4
			c0.9,0.9,2.8-0.1,3.3-0.6s1.4-2.4,1.6-2.8c0.1-0.4,4.3-5.4,5.6-9.5l0.6-3.9L1088.2,35z"/>
		<path fill="#F8B799" d="M1101,22.6c0,0,1.9-0.7,2.4-3.7c0.5-3-2.1-6.9-7.6-5.6c-3,0.7-2.6,2-2.6,2s-0.3,5.1,0.5,6.5
			c0.8,1.3,2.8,1.3,2.8,1.3v1.8c0,0,1,2.3,4.4,0.4V22.6z"/>
		<path fill="#030000" d="M1090.8,47.3c0,0.3,0,0.5,0,0.5s10.5,7.6,15,1.2v-0.5L1090.8,47.3z"/>
		<path fill="#FFF200" d="M1102.3,25.7l-1.3-0.4c-3.5,1.9-4.4-0.4-4.4-0.4s-2.1,0.1-4.5,0.7c-0.7,0.7-0.3,7.8,0,14.4
			c0.2,3.5-1.3,3.8-1.3,7.2c0.4,0.2,10.5,7.6,15,1.2c0,0-0.8-4.3-0.8-5.7c0-1.3,0.8-5.2,0.8-5.2s1.4,1.3,1.7,3.6
			c0,0,3.8-0.2,4.7-1.4C1112.3,39.6,1111.8,26.8,1102.3,25.7z"/>
		<path fill="#231F20" d="M1101,19.5c0,0,0.2,1.3,1.6,1.6c0.3-0.5,0.7-1.3,0.8-2.2c0.5-3,1.9-6.9-2.4-8c-2.2-0.6-2.7-0.1-5.4,0.1
			c-3.1,0.2-2.3,4.2-2.3,4.2s4.8,1,6.3,0.2c1.6-0.8,0.4,2.9,0.4,2.9s0.3,0.1,0.6,0c0-1.3,1.2-1.2,1.4-0.7
			C1102.4,18.3,1101,19.5,1101,19.5z"/>
		<path fill="#E6E7E8" d="M1104.6,80.7l0.2-7.6h-4.5v0l0.6,8.2C1100.9,81.3,1102.6,82.9,1104.6,80.7z"/>
		<path fill="#F1F2F2" d="M1100.2,71.4c0,0,2,1.4,4.7,0v1.7c0,0-1.9,1-4.6,0L1100.2,71.4z"/>
		<path fill="#E6E7E8" d="M1091.5,67.5l0,7.9c0.4,0.7,1,0.9,1.6,1c0.6,0,1.2-0.3,2-1l0-0.2l0.4-7.4L1091.5,67.5z"/>
		<path fill="#F1F2F2" d="M1091.5,66l0,1.6c1.8,0.7,3.3,0.5,4,0.3l0.1-1.7C1093.5,67,1092.1,66.4,1091.5,66z"/>
		<path fill="#030000" d="M1090.4,75.4c0,0-1.4,0.8-3.2,2.5c-1.8,1.6-0.4,3.1,2.2,2.6c2.6-0.6,3.3-1.2,4.7-1.9
			c1.4-0.7,1.1-2.2,1.1-3.1c0-0.3-1.1,1-1.9,1C1093.6,73,1090.4,75.4,1090.4,75.4z"/>
		<path fill="#030000" d="M1099.9,80.7c0,0-1.4,0.8-3.2,2.5c-1.8,1.6-0.4,3.1,2.2,2.6s3.3-1.2,4.7-1.9c1.4-0.7,1.1-2.2,1.1-3.1
			c0-0.3-1.1,1-1.9,1C1103.1,78.3,1099.9,80.7,1099.9,80.7z"/>
		<path fill="#BFB500" d="M1105,37.9c0,0-0.8,3.5-0.9,4.7c0,1.7,0.9,6.8,0.9,6.8c0.3-0.3,0.6-0.6,0.9-1c0,0,0,0,0,0
			c0,0-0.8-4.3-0.8-5.7c0-1.3,0.8-5.2,0.8-5.2v0v0c0,0-1.1-1.5-1.8-3.4C1104.1,34.1,1104.1,36.6,1105,37.9z"/>
		<path fill="#BA8973" d="M1101,22.6v2.7c-0.3,0.2-0.5,0.3-0.8,0.4v0c-0.1-1.2-1-2.2-2.2-2.4c-0.9-0.1-1.5-0.2-1.5-0.2
			S1100.1,23.2,1101,22.6z"/>
		<path fill="#BA8973" d="M1111.9,40c0,0-0.6,0.6-3.7,1c0.1,0.4,0.1,0.7,0.1,0.7s2.9-0.2,3.8-0.9L1111.9,40z"/>
		<polygon fill="#BA8973" points="1091.5,35.4 1088.2,35 1088,35.7 1091.4,36.1 		"/>
		<path fill="#BA8973" d="M1095.8,60.8c0,0-2.2,0.5-4.4-0.3v0.8c0,0,2.3,0.9,4.3,0.2L1095.8,60.8z"/>
		<path fill="#BA8973" d="M1099.5,62.5c0,0,3.1,1.6,5.6-0.1l0,0.8c0,0-2.5,1.5-5.6,0.3L1099.5,62.5z"/>
	</g>
	<g>
		<defs>
			<rect id="XMLID_1_" x="1057.7" y="51.2" width="18" height="12.7"/>
		</defs>
		<use xlink:href="#XMLID_1_"  overflow="visible" fill="#FFF200"/>
		<clipPath id="XMLID_3_">
			<use xlink:href="#XMLID_1_"  overflow="visible"/>
		</clipPath>
		<g clip-path="url(#XMLID_3_)">
			
				<rect x="1052.5" y="47.1" transform="matrix(0.7071 0.7071 -0.7071 0.7071 343.0768 -731.0392)" fill="#ED1C24" width="3" height="3"/>
			
				<rect x="1056.8" y="47.1" transform="matrix(0.7071 0.7071 -0.7071 0.7071 344.3512 -734.1158)" fill="#ED1C24" width="3" height="3"/>
			
				<rect x="1061.3" y="47.1" transform="matrix(0.7071 0.7071 -0.7071 0.7071 345.6512 -737.2544)" fill="#ED1C24" width="3" height="3"/>
			
				<rect x="1065.6" y="47.1" transform="matrix(0.7071 0.7071 -0.7071 0.7071 346.9256 -740.3309)" fill="#ED1C24" width="3" height="3"/>
			
				<rect x="1070" y="47.1" transform="matrix(0.7071 0.7071 -0.7071 0.7071 348.2256 -743.4695)" fill="#ED1C24" width="3" height="3"/>
			
				<rect x="1074.4" y="47.1" transform="matrix(0.7071 0.7071 -0.7071 0.7071 349.5 -746.5461)" fill="#ED1C24" width="3" height="3"/>
			
				<rect x="1054.6" y="49.2" transform="matrix(0.7071 0.7071 -0.7071 0.7071 345.2302 -731.9495)" fill="#FFF200" width="3" height="3"/>
			
				<rect x="1059" y="49.2" transform="matrix(0.7071 0.7071 -0.7071 0.7071 346.5045 -735.026)" fill="#FFF200" width="3" height="3"/>
			
				<rect x="1063.4" y="49.2" transform="matrix(0.7071 0.7071 -0.7071 0.7071 347.8046 -738.1646)" fill="#FFF200" width="3" height="3"/>
			
				<rect x="1067.8" y="49.2" transform="matrix(0.7071 0.7071 -0.7071 0.7071 349.0789 -741.2411)" fill="#FFF200" width="3" height="3"/>
			
				<rect x="1072.2" y="49.2" transform="matrix(0.7071 0.7071 -0.7071 0.7071 350.379 -744.3798)" fill="#FFF200" width="3" height="3"/>
			
				<rect x="1076.6" y="49.2" transform="matrix(0.7071 0.7071 -0.7071 0.7071 351.6534 -747.4563)" fill="#FFF200" width="3" height="3"/>
			
				<rect x="1052.5" y="51.4" transform="matrix(0.7071 0.7071 -0.7071 0.7071 346.1478 -729.7672)" fill="#ED1C24" width="3" height="3"/>
			
				<rect x="1056.8" y="51.4" transform="matrix(0.7071 0.7071 -0.7071 0.7071 347.4221 -732.8438)" fill="#ED1C24" width="3" height="3"/>
			
				<rect x="1061.3" y="51.4" transform="matrix(0.7071 0.7071 -0.7071 0.7071 348.7222 -735.9824)" fill="#ED1C24" width="3" height="3"/>
			
				<rect x="1065.6" y="51.4" transform="matrix(0.7071 0.7071 -0.7071 0.7071 349.9966 -739.0589)" fill="#ED1C24" width="3" height="3"/>
			
				<rect x="1070" y="51.4" transform="matrix(0.7071 0.7071 -0.7071 0.7071 351.2966 -742.1975)" fill="#ED1C24" width="3" height="3"/>
			
				<rect x="1074.4" y="51.4" transform="matrix(0.7071 0.7071 -0.7071 0.7071 352.571 -745.274)" fill="#ED1C24" width="3" height="3"/>
			
				<rect x="1054.6" y="53.6" transform="matrix(0.7071 0.7071 -0.7071 0.7071 348.3012 -730.6774)" fill="#FFF200" width="3" height="3"/>
			
				<rect x="1059" y="53.6" transform="matrix(0.7071 0.7071 -0.7071 0.7071 349.5755 -733.754)" fill="#FFF200" width="3" height="3"/>
			
				<rect x="1063.4" y="53.6" transform="matrix(0.7071 0.7071 -0.7071 0.7071 350.8756 -736.8926)" fill="#FFF200" width="3" height="3"/>
			
				<rect x="1067.8" y="53.6" transform="matrix(0.7071 0.7071 -0.7071 0.7071 352.1499 -739.9691)" fill="#FFF200" width="3" height="3"/>
			
				<rect x="1072.2" y="53.6" transform="matrix(0.7071 0.7071 -0.7071 0.7071 353.45 -743.1077)" fill="#FFF200" width="3" height="3"/>
			
				<rect x="1076.6" y="53.6" transform="matrix(0.7071 0.7071 -0.7071 0.7071 354.7243 -746.1843)" fill="#FFF200" width="3" height="3"/>
			
				<rect x="1052.5" y="55.8" transform="matrix(0.7071 0.7071 -0.7071 0.7071 349.2188 -728.4952)" fill="#ED1C24" width="3" height="3"/>
			
				<rect x="1056.8" y="55.8" transform="matrix(0.7071 0.7071 -0.7071 0.7071 350.4932 -731.5717)" fill="#ED1C24" width="3" height="3"/>
			
				<rect x="1061.3" y="55.8" transform="matrix(0.7071 0.7071 -0.7071 0.7071 351.7932 -734.7103)" fill="#ED1C24" width="3" height="3"/>
			
				<rect x="1065.6" y="55.8" transform="matrix(0.7071 0.7071 -0.7071 0.7071 353.0675 -737.7868)" fill="#ED1C24" width="3" height="3"/>
			
				<rect x="1070" y="55.8" transform="matrix(0.7071 0.7071 -0.7071 0.7071 354.3676 -740.9255)" fill="#ED1C24" width="3" height="3"/>
			
				<rect x="1074.4" y="55.8" transform="matrix(0.7071 0.7071 -0.7071 0.7071 355.6419 -744.002)" fill="#ED1C24" width="3" height="3"/>
			
				<rect x="1054.6" y="57.9" transform="matrix(0.7071 0.7071 -0.7071 0.7071 351.3722 -729.4054)" fill="#FFF200" width="3" height="3"/>
			
				<rect x="1059" y="57.9" transform="matrix(0.7071 0.7071 -0.7071 0.7071 352.6465 -732.4819)" fill="#FFF200" width="3" height="3"/>
			
				<rect x="1063.4" y="57.9" transform="matrix(0.7071 0.7071 -0.7071 0.7071 353.9466 -735.6205)" fill="#FFF200" width="3" height="3"/>
			
				<rect x="1067.8" y="57.9" transform="matrix(0.7071 0.7071 -0.7071 0.7071 355.2209 -738.697)" fill="#FFF200" width="3" height="3"/>
			
				<rect x="1072.2" y="57.9" transform="matrix(0.7071 0.7071 -0.7071 0.7071 356.521 -741.8357)" fill="#FFF200" width="3" height="3"/>
			
				<rect x="1076.6" y="57.9" transform="matrix(0.7071 0.7071 -0.7071 0.7071 357.7953 -744.9122)" fill="#FFF200" width="3" height="3"/>
			
				<rect x="1052.5" y="60.1" transform="matrix(0.7071 0.7071 -0.7071 0.7071 352.2898 -727.2231)" fill="#ED1C24" width="3" height="3"/>
			
				<rect x="1056.8" y="60.1" transform="matrix(0.7071 0.7071 -0.7071 0.7071 353.5641 -730.2996)" fill="#ED1C24" width="3" height="3"/>
			
				<rect x="1061.3" y="60.1" transform="matrix(0.7071 0.7071 -0.7071 0.7071 354.8642 -733.4383)" fill="#ED1C24" width="3" height="3"/>
			
				<rect x="1065.6" y="60.1" transform="matrix(0.7071 0.7071 -0.7071 0.7071 356.1385 -736.5148)" fill="#ED1C24" width="3" height="3"/>
			
				<rect x="1070" y="60.1" transform="matrix(0.7071 0.7071 -0.7071 0.7071 357.4386 -739.6534)" fill="#ED1C24" width="3" height="3"/>
			
				<rect x="1074.4" y="60.1" transform="matrix(0.7071 0.7071 -0.7071 0.7071 358.7129 -742.7299)" fill="#ED1C24" width="3" height="3"/>
			
				<rect x="1054.6" y="62.3" transform="matrix(0.7071 0.7071 -0.7071 0.7071 354.4432 -728.1334)" fill="#FFF200" width="3" height="3"/>
			
				<rect x="1059" y="62.3" transform="matrix(0.7071 0.7071 -0.7071 0.7071 355.7175 -731.2098)" fill="#FFF200" width="3" height="3"/>
			
				<rect x="1063.4" y="62.3" transform="matrix(0.7071 0.7071 -0.7071 0.7071 357.0176 -734.3485)" fill="#FFF200" width="3" height="3"/>
			
				<rect x="1067.8" y="62.3" transform="matrix(0.7071 0.7071 -0.7071 0.7071 358.2919 -737.425)" fill="#FFF200" width="3" height="3"/>
			
				<rect x="1072.2" y="62.3" transform="matrix(0.7071 0.7071 -0.7071 0.7071 359.5919 -740.5637)" fill="#FFF200" width="3" height="3"/>
			
				<rect x="1076.6" y="62.3" transform="matrix(0.7071 0.7071 -0.7071 0.7071 360.8663 -743.6401)" fill="#FFF200" width="3" height="3"/>
		</g>
	</g>
	<path fill="#030000" d="M1081.3,51.9h-23.7c-0.4,0-0.7-0.3-0.7-0.7l0,0c0-0.4,0.3-0.7,0.7-0.7h23.7c0.4,0,0.7,0.3,0.7,0.7l0,0
		C1081.9,51.6,1081.6,51.9,1081.3,51.9z"/>
</g>
<g>
	<ellipse fill="#467450" cx="519.8" cy="591.8" rx="22.9" ry="12.2"/>
	<path fill="#BFB500" d="M490.3,574.6c0,11.7,13.2,25.3,29.5,25.3c16.3,0,29.5-13.5,29.5-25.3c0-11.7-13.2-13.6-29.5-13.6
		C503.5,561,490.3,562.9,490.3,574.6z"/>
	<ellipse fill="#FFF200" cx="519.8" cy="573.1" rx="29.5" ry="15.8"/>
	<ellipse fill="#FFFFFF" cx="519.8" cy="573.1" rx="25.8" ry="13.8"/>
	<path fill="#F8B799" d="M516.7,550l-1.6,20.3c0,0-1.7,1.6-3.7-0.6l-0.5-19.8H516.7z"/>
	<path fill="#F8B799" d="M520.2,549.4l0.8,15.7c0,0,2.4,1.2,3.5-0.7l0-15C524.6,549.4,521.3,548.9,520.2,549.4z"/>
	<path fill="#231F20" d="M525.2,536.3c0,0,0.1,4.1,0,4.4c-0.1,0.3-6.5,1.5-7,2.4c-0.6,0.9-1.1,8.1-1.1,8.1s-4.1,2.4-6.9-0.5v-13.3
		L525.2,536.3z"/>
	<path fill="#030000" d="M525.2,540.7l0,8.7c0,0-3.9,1.3-6.1,0c0,0-0.1-5.2-0.9-6.3C518.2,543.1,519.2,539.9,525.2,540.7z"/>
	<path fill="#F8B799" d="M507.9,530.1c0,0-1.3,7.8-0.6,11.2c0.7,3.3,0.6,2.9-0.2,3c0,0,0.4,2.1,0,2.3c-0.4,0.2-2.4-0.3-2.7-2.7
		c-0.4-2.4,0-3,0-3s-1.4-7.2-0.2-11.7C504.2,529.1,505.5,529.7,507.9,530.1z"/>
	<path fill="#BFB500" d="M524,514.6c0,0,1.9,0.6,3.3,4.8c0.3,0.9,1.1,4.6,1.1,4.6l-4.2,0.4C524.2,524.5,524.6,515.1,524,514.6z"/>
	<path fill="#F8B799" d="M527.9,524.1c0,0,0.6,2.5,0.9,3.4c0.4,0.9,2.7,6.9,4,8.2c1.2,1.3,1.8,1.5,1.5,2.1c-0.3,0.5,2.4,2.4,1.4,3.4
		c-0.9,0.9-2.8-0.1-3.3-0.6c-0.5-0.5-1.4-2.4-1.6-2.8c-0.1-0.4-4.3-5.4-5.6-9.5l-0.6-3.9L527.9,524.1z"/>
	<path fill="#F8B799" d="M515,511.6c0,0-1.9-0.7-2.4-3.7s2.1-6.9,7.6-5.6c3,0.7,2.6,2,2.6,2s0.3,5.1-0.5,6.5
		c-0.8,1.3-2.8,1.3-2.8,1.3v1.8c0,0-1,2.3-4.4,0.4V511.6z"/>
	<path fill="#030000" d="M525.2,536.3c0,0.3,0,0.5,0,0.5s-10.5,7.6-15,1.2v-0.5L525.2,536.3z"/>
	<path fill="#FFF200" d="M513.8,514.7l1.3-0.4c3.5,1.9,4.4-0.4,4.4-0.4s2.1,0.1,4.5,0.7c0.7,0.7,0.3,7.8,0,14.4
		c-0.2,3.5,1.3,3.8,1.3,7.2c-0.4,0.2-10.5,7.6-15,1.2c0,0,0.8-4.3,0.8-5.7c0-1.3-0.8-5.2-0.8-5.2s-1.4,1.3-1.7,3.6
		c0,0-3.8-0.2-4.7-1.4C503.7,528.7,504.2,515.9,513.8,514.7z"/>
	<path fill="#231F20" d="M515,508.6c0,0-0.2,1.3-1.6,1.6c-0.3-0.5-0.7-1.3-0.8-2.2c-0.5-3-1.9-6.9,2.4-8c2.2-0.6,2.7-0.1,5.4,0.1
		c3.1,0.2,2.3,4.2,2.3,4.2s-4.8,1-6.3,0.2c-1.6-0.8-0.4,2.9-0.4,2.9s-0.3,0.1-0.6,0c0-1.3-1.2-1.2-1.4-0.7
		C513.7,507.3,515,508.6,515,508.6z"/>
	<path fill="#E6E7E8" d="M511.4,569.8l-0.2-7.6h4.5v0l-0.6,8.2C515.1,570.3,513.5,572,511.4,569.8z"/>
	<path fill="#F1F2F2" d="M515.9,560.5c0,0-2,1.4-4.7,0v1.7c0,0,1.9,1,4.6,0L515.9,560.5z"/>
	<path fill="#E6E7E8" d="M524.6,556.6l0,7.9c-0.4,0.7-1,0.9-1.6,1c-0.6,0-1.2-0.3-2-1l0-0.2l-0.4-7.4L524.6,556.6z"/>
	<path fill="#F1F2F2" d="M524.6,555.1l0,1.6c-1.8,0.7-3.3,0.5-4,0.3l-0.1-1.7C522.5,556,524,555.4,524.6,555.1z"/>
	<path fill="#030000" d="M525.7,564.4c0,0,1.4,0.8,3.2,2.5c1.8,1.6,0.4,3.1-2.2,2.6c-2.6-0.6-3.3-1.2-4.7-1.9
		c-1.4-0.7-1.1-2.2-1.1-3.1c0-0.3,1.1,1,1.9,1C522.5,562,525.7,564.4,525.7,564.4z"/>
	<path fill="#030000" d="M516.2,569.8c0,0,1.4,0.8,3.2,2.5s0.4,3.1-2.2,2.6c-2.6-0.6-3.3-1.2-4.7-1.9c-1.4-0.7-1.1-2.2-1.1-3.1
		c0-0.3,1.1,1,1.9,1C513,567.4,516.2,569.8,516.2,569.8z"/>
	<path fill="#BFB500" d="M511.1,527c0,0,0.8,3.5,0.9,4.7c0,1.7-0.9,6.8-0.9,6.8c-0.3-0.3-0.6-0.6-0.9-1c0,0,0,0,0,0
		c0,0,0.8-4.3,0.8-5.7c0-1.3-0.8-5.2-0.8-5.2v0v0c0,0,1.1-1.5,1.8-3.4C512,523.1,512,525.7,511.1,527z"/>
	<path fill="#BA8973" d="M515,511.6v2.7c0.3,0.2,0.5,0.3,0.8,0.4l0,0c0.1-1.2,1-2.2,2.2-2.4c0.9-0.1,1.5-0.2,1.5-0.2
		S515.9,512.2,515,511.6z"/>
	<path fill="#BA8973" d="M504.2,529.1c0,0,0.6,0.6,3.7,1c-0.1,0.4-0.1,0.7-0.1,0.7s-2.9-0.2-3.8-0.9L504.2,529.1z"/>
	<polygon fill="#BA8973" points="524.6,524.4 527.9,524.1 528,524.7 524.7,525.1 	"/>
	<path fill="#BA8973" d="M520.3,549.8c0,0,2.2,0.5,4.4-0.2v0.8c0,0-2.3,0.9-4.3,0.2L520.3,549.8z"/>
	<path fill="#BA8973" d="M516.6,551.5c0,0-3.1,1.6-5.6-0.1l0,0.8c0,0,2.5,1.5,5.6,0.3L516.6,551.5z"/>
</g>
<path fill="none" stroke="#FFFFFF" stroke-width="5" stroke-linejoin="round" stroke-miterlimit="10" d="M852.8,8.3
	c0,0,13.8,19.7,42.9,6.1"/>
<line fill="none" stroke="#FFFFFF" stroke-width="5" stroke-linejoin="round" stroke-miterlimit="10" x1="783.1" y1="686" x2="1045.2" y2="615.3"/>
<g>
	<path fill="#467450" d="M1308.1,216.8c-17.6,0.8-119-19.5-131.3-19c-12.3,0.5-39.3,8.7-47.4,18.8s-53.6,18.4-59.6,22.9
		s-28.2,14.3-30.8,25.2c-2.7,10.9-36.5,64.4-38,77c-1.5,12.6-10.8,37.2-10.8,37.2c13,9.4,23.8-0.3,23.8-0.3l0,0
		c0,0,18.8,6.9,33.3,3.7c14.5-3.2,31.3-30.9,31.3-30.9s31.1,33.9,40.6,43.9c9.5,10,16.3,1.8,31.6,5.5c5,1.2,10.3,0.6,14.9-1.2
		c-7.9,7.2-13.1,13.3-13.1,13.3c-4.6,5,14.2,19.8,26.9,15.1c12.7-4.7,23.7,5,31.8,6.4c8.2,1.3,50.5-21.4,70.5-34.3
		s32.8-30,51.9-34.9c34.7-8.9,36.7-19.2,66.1-39.8c0.1-0.1,0.2-0.1,0.2-0.2V197.8C1350.6,221.8,1322.2,216.2,1308.1,216.8z
		 M1204.6,376.1c-9.3,1.8-19,7.4-27.4,13.7c1.8-3.5,2-7.3-0.1-11.1c-6.8-12.2-41.9-16.1-41.9-16.1c-0.1-1.2-0.2-2.4-0.5-3.6
		c0,0,19.1-17.2,30.2-21.6c11.1-4.4,34.5-17.8,45-21.3c10.4,11.1,17.4,25.8,17.8,28C1228.3,347.5,1204.6,376.1,1204.6,376.1z"/>
</g>
<g>
	<path fill="#BA8973" d="M1134.7,346.9c0,0,19.1-17.2,30.2-21.6c11.1-4.4,34.5-17.8,45-21.3l-15.1-55.4L1091.3,323L1134.7,346.9z"/>
	<path fill="#F8B799" d="M1400,185.6c-49.4,24-77.8,18.4-91.9,19c-17.6,0.8-119-19.5-131.3-19c-12.3,0.5-39.3,8.7-47.4,18.8
		s-53.6,18.4-59.6,22.9s-28.2,14.3-30.8,25.2c-2.7,10.9-36.5,64.4-38,77c-1.5,12.6-10.8,37.2-10.8,37.2c13,9.4,23.8-0.3,23.8-0.3
		s18.8,6.9,33.3,3.7c14.5-3.2,31.3-30.9,31.3-30.9s31.1,33.9,40.6,43.9c9.5,10,16.3,1.8,31.6,5.5c5,1.2,10.3,0.6,14.9-1.2
		c-7.9,7.2-13.1,13.3-13.1,13.3c-4.6,5,14.2,19.8,26.9,15.1c12.7-4.7,23.7,5,31.8,6.4c8.2,1.3,50.5-21.4,70.5-34.3
		s32.8-30,51.9-34.9c34.7-8.9,36.7-19.2,66.1-39.8c0.1-0.1,0.2-0.1,0.2-0.2V185.6z M1204.6,363.9c-9.3,1.8-19,7.4-27.4,13.7
		c1.8-3.5,2-7.3-0.1-11.1c-6.8-12.2-41.9-16.1-41.9-16.1c-0.6-14.8-16.5-24.9-16.5-24.9c10.8-3.5,35.1-30.8,35.1-30.8
		c3.9,2.8,16.4-6.7,36.6-3.2c20.1,3.5,36.7,36.9,37.3,40.3C1228.3,335.4,1204.6,363.9,1204.6,363.9z"/>
	<path fill="#BA8973" d="M1013.9,366.3c2.5-0.8,4.8-1.9,7.1-3.2c2.2-1.3,4.4-2.8,6.3-4.5c3.9-3.3,6.9-7.7,8.6-12.4
		c1.8-4.9,3.5-9.8,5-14.7c1.5-4.9,3-9.9,4.3-14.9l0.1-0.5l0.4-0.3c3.1-2.5,6.1-5.2,9.1-7.8c3-2.7,5.9-5.4,8.7-8.3
		c2.8-2.8,5.5-5.8,7.9-8.9c2.4-3.1,4.6-6.4,5.5-9.8l0.2-0.6l0.5-0.4c8.9-7.4,17.7-15.1,26.2-23c8.5-7.9,16.8-16,24.4-24.8
		c3.9-4.3,7.7-8.8,11.9-12.9c4.1-4.2,8.6-8.2,13.9-11c5.3-2.9,11.4-4.1,17.3-3.9c5.9,0.2,11.6,1.8,17.1,3.7
		c-5.6-1.5-11.4-2.6-17.1-2.6c-5.8,0.1-11.4,1.6-16.2,4.5c-4.9,2.9-9,6.9-13,11.1c-3.9,4.2-7.6,8.7-11.4,13.2
		c-3.8,4.5-7.7,8.9-11.8,13.1c-4.1,4.2-8.2,8.4-12.5,12.4c-8.5,8-17.3,15.8-26.4,23.2l0.7-1c-0.6,2.3-1.6,4.2-2.7,6
		c-1.1,1.8-2.3,3.5-3.6,5.2c-2.6,3.3-5.4,6.2-8.3,9.1c-5.8,5.7-12,11-18.5,16l0.5-0.8c-1.5,5.1-3.1,10-4.8,14.9
		c-1.8,4.9-3.6,9.8-5.6,14.6c-2.2,4.9-5.5,9.2-9.7,12.5C1023.8,362.6,1019,365,1013.9,366.3z"/>
	<path fill="#BA8973" d="M1078.5,339.1c-3-2.5-5.4-5.6-7.6-8.8c-2.1-3.2-3.9-6.7-5.2-10.5c-1.3-3.7-2.1-7.7-1.8-11.8
		c0.2-4,1.7-8.1,4.5-10.9c-1.4,3.7-1.8,7.2-1.4,10.8c0.3,3.6,1.3,7.1,2.5,10.5C1071.8,325.5,1075.2,332.1,1078.5,339.1z"/>
	<path fill="#BA8973" d="M1227.7,331.9l1.6-8c0.5-2.6,1-5.2,1.4-7.8c0.4-2.6,0.8-5.2,1.2-7.8c0.4-2.6,0.6-5.3,1.2-8.1
		c1.1,2.6,1.7,5.4,1.9,8.2c0.2,2.8,0.1,5.6-0.4,8.4c-0.4,2.8-1.2,5.5-2.3,8.1C1231.1,327.4,1229.7,329.9,1227.7,331.9z"/>
	<path fill="#BA8973" d="M1153.8,294.8c-0.1-1.7,0-3.1,0.1-4.6c0.2-1.4,0.5-2.8,0.8-4.2c0.3-1.4,0.7-2.7,1.1-4
		c0.4-1.3,0.9-2.7,1.4-4.2c1.1,1.3,1.5,2.9,1.7,4.5c0.2,1.6,0,3.1-0.4,4.6c-0.3,1.5-0.9,2.9-1.7,4.3
		C1156.1,292.5,1155.2,293.8,1153.8,294.8z"/>
	<path fill="#BA8973" d="M1118.7,325.6c-1.3,0.8-2.7,1.2-4,1.4c-1.3,0.2-2.7,0.3-4,0.2c-1.3-0.1-2.7-0.3-4-0.8
		c-1.3-0.4-2.6-1-3.8-2.1c1.5-0.5,2.8-0.8,4.1-0.9c1.3-0.2,2.6-0.2,3.9-0.1c1.3,0.1,2.6,0.3,3.9,0.6
		C1116.1,324.3,1117.4,324.7,1118.7,325.6z"/>
	<path fill="#BA8973" d="M1046.7,316.9c-0.8,1.3-1.8,2.2-2.9,2.9c-1.1,0.7-2.3,1.2-3.6,1.5c-1.3,0.3-2.7,0.4-4.1,0.1
		c-1.4-0.3-2.8-0.9-3.6-2.2c1.5-0.2,2.5-0.6,3.6-0.9c1.1-0.3,2.1-0.6,3.2-0.8c1.1-0.2,2.2-0.5,3.5-0.6
		C1044,316.8,1045.2,316.8,1046.7,316.9z"/>
</g>
<g>
	<ellipse fill="#467450" cx="840.8" cy="202.4" rx="22.9" ry="12.2"/>
	<path fill="#9B2B00" d="M870.3,185.2c0,11.7-13.2,25.3-29.5,25.3c-16.3,0-29.5-13.5-29.5-25.3c0-11.7,13.2-13.6,29.5-13.6
		C857.1,171.6,870.3,173.4,870.3,185.2z"/>
	<ellipse fill="#CE3900" cx="840.8" cy="183.7" rx="29.5" ry="15.8"/>
	<ellipse fill="#FFFFFF" cx="840.8" cy="183.7" rx="25.8" ry="13.8"/>
	<path fill="#F8B799" d="M844,160.6l1.6,20.3c0,0,1.7,1.6,3.7-0.6l0.5-19.8H844z"/>
	<path fill="#F8B799" d="M840.4,160l-0.8,15.7c0,0-2.4,1.2-3.5-0.7l0-15C836,160,839.4,159.5,840.4,160z"/>
	<path fill="#F1F2F2" d="M835.4,146.9c0,0-0.1,4.1,0,4.4c0.1,0.3,6.5,1.5,7,2.4c0.6,0.9,1.1,8.1,1.1,8.1s4.1,2.4,6.9-0.5V148
		L835.4,146.9z"/>
	<path fill="#E6E7E8" d="M835.4,151.3l0,8.7c0,0,3.9,1.3,6.1,0c0,0,0.1-5.2,0.9-6.3C842.5,153.7,841.4,150.4,835.4,151.3z"/>
	<path fill="#F8B799" d="M852.8,140.6c0,0,1.3,7.8,0.6,11.2c-0.7,3.3-0.6,2.9,0.2,3c0,0-0.4,2.1,0,2.3c0.4,0.2,2.4-0.3,2.7-2.7
		c0.4-2.4,0-3,0-3s1.4-7.2,0.2-11.7C856.5,139.6,855.1,140.3,852.8,140.6z"/>
	<path fill="#9B2B00" d="M836.7,125.2c0,0-1.9,0.6-3.3,4.8c-0.3,0.9-1.1,4.6-1.1,4.6l4.2,0.4C836.5,135,836,125.6,836.7,125.2z"/>
	<path fill="#CE3900" d="M849.2,162.2c-0.5,0.3-1,0.4-1.5,0.5v-13.3h1.5V162.2z"/>
	<path fill="#F8B799" d="M832.8,134.6c0,0-0.6,2.5-0.9,3.4c-0.4,0.9-2.7,6.9-4,8.2c-1.2,1.3-1.8,1.5-1.5,2.1
		c0.3,0.5-2.4,2.4-1.4,3.4s2.8-0.1,3.3-0.6c0.5-0.5,1.4-2.4,1.6-2.8c0.1-0.4,4.3-5.4,5.6-9.5l0.6-3.9L832.8,134.6z"/>
	<path fill="#F8B799" d="M845.6,122.2c0,0,1.9-0.7,2.4-3.7s-2.1-6.9-7.6-5.6c-3,0.7-2.6,2-2.6,2s-0.3,5.1,0.5,6.5
		c0.8,1.3,2.8,1.3,2.8,1.3v1.8c0,0,1,2.3,4.4,0.4V122.2z"/>
	<path fill="#9B2B00" d="M835.4,146.9c0,0.3,0,0.5,0,0.5s10.5,7.6,15,1.2V148L835.4,146.9z"/>
	<path fill="#CE3900" d="M846.9,125.3l-1.3-0.4c-3.5,1.9-4.4-0.4-4.4-0.4s-2.1,0.1-4.5,0.7c-0.7,0.7-0.3,7.8,0,14.4
		c0.2,3.5-1.3,3.8-1.3,7.2c0.4,0.2,10.5,7.6,15,1.2c0,0-0.8-4.3-0.8-5.7c0-1.3,0.8-5.2,0.8-5.2s1.4,1.3,1.7,3.6c0,0,3.8-0.2,4.7-1.4
		C856.9,139.2,856.4,126.4,846.9,125.3z"/>
	<path fill="#8B5E3C" d="M845.6,119.1c0,0,0.2,1.3,1.6,1.6c0.3-0.5,0.7-1.3,0.8-2.2c0.5-3,1.9-6.9-2.4-8c-2.2-0.6-5.4,0.1-8.9-0.9
		c-3-0.8,1.2,5.2,1.2,5.2s4.8,1,6.3,0.2c1.6-0.8,0.4,2.9,0.4,2.9s0.3,0.1,0.6,0c0-1.3,1.2-1.2,1.4-0.7
		C846.9,117.9,845.6,119.1,845.6,119.1z"/>
	<path fill="#CE3900" d="M849.2,180.3l0.2-7.6h-4.5v0l0.6,8.2C845.5,180.9,847.2,182.5,849.2,180.3z"/>
	<path fill="#F1F2F2" d="M844.8,171c0,0,2,1.4,4.7,0v1.7c0,0-1.9,1-4.6,0L844.8,171z"/>
	<path fill="#CE3900" d="M836.1,167.1l0,7.9c0.4,0.7,1,0.9,1.6,1c0.6,0,1.2-0.3,2-1l0-0.2l0.4-7.4L836.1,167.1z"/>
	<path fill="#F1F2F2" d="M836.1,165.6l0,1.6c1.8,0.7,3.3,0.5,4,0.3l0.1-1.7C838.1,166.6,836.7,166,836.1,165.6z"/>
	<path fill="#9B2B00" d="M835,175c0,0-1.4,0.8-3.2,2.5s-0.4,3.1,2.2,2.6c2.6-0.6,3.3-1.2,4.7-1.9s1.1-2.2,1.1-3.1c0-0.3-1.1,1-1.9,1
		C838.2,172.6,835,175,835,175z"/>
	<path fill="#9B2B00" d="M844.5,180.3c0,0-1.4,0.8-3.2,2.5s-0.4,3.1,2.2,2.6c2.6-0.6,3.3-1.2,4.7-1.9c1.4-0.7,1.1-2.2,1.1-3.1
		c0-0.3-1.1,1-1.9,1C847.7,177.9,844.5,180.3,844.5,180.3z"/>
	<path fill="#9B2B00" d="M849.6,137.5c0,0-0.8,3.5-0.9,4.7c0,1.7,0.9,6.8,0.9,6.8c0.3-0.3,0.6-0.6,0.9-1c0,0,0,0,0,0
		c0,0-0.8-4.3-0.8-5.7c0-1.3,0.8-5.2,0.8-5.2l0,0v0c0,0-1.1-1.5-1.8-3.4C848.7,133.7,848.7,136.2,849.6,137.5z"/>
	<path fill="#BA8973" d="M845.6,122.2v2.7c-0.3,0.2-0.5,0.3-0.8,0.4l0,0c-0.1-1.2-1-2.2-2.2-2.4c-0.9-0.1-1.5-0.2-1.5-0.2
		S844.7,122.8,845.6,122.2z"/>
	<path fill="#BA8973" d="M856.5,139.6c0,0-0.6,0.6-3.7,1c0.1,0.4,0.1,0.7,0.1,0.7s2.9-0.2,3.8-0.9L856.5,139.6z"/>
	<polygon fill="#BA8973" points="836.1,135 832.8,134.6 832.6,135.3 836,135.7 	"/>
	<path fill="#BA8973" d="M840.4,160.4c0,0-2.2,0.5-4.4-0.3v0.8c0,0,2.3,0.9,4.3,0.2L840.4,160.4z"/>
	<path fill="#BA8973" d="M844.1,162.1c0,0,3.1,1.6,5.6-0.1l0,0.8c0,0-2.5,1.5-5.6,0.3L844.1,162.1z"/>
</g>
<g>
	<ellipse fill="#467450" cx="1087.7" cy="464" rx="22.9" ry="12.2"/>
	<path fill="#055CBA" d="M1117.2,446.8c0,11.7-13.2,25.3-29.5,25.3c-16.3,0-29.5-13.5-29.5-25.3s13.2-13.6,29.5-13.6
		C1104,433.2,1117.2,435,1117.2,446.8z"/>
	<ellipse fill="#017CFF" cx="1087.7" cy="445.3" rx="29.5" ry="15.8"/>
	<ellipse fill="#FFFFFF" cx="1087.7" cy="445.3" rx="25.8" ry="13.8"/>
	<path fill="#F8B799" d="M1090.8,422.2l1.6,20.3c0,0,1.7,1.6,3.7-0.6l0.5-19.8H1090.8z"/>
	<path fill="#F8B799" d="M1087.3,421.6l-0.8,15.7c0,0-2.4,1.2-3.5-0.7l0-15C1082.9,421.6,1086.2,421.1,1087.3,421.6z"/>
	<path fill="#F1F2F2" d="M1082.3,408.5c0,0-0.1,4.1,0,4.4c0.1,0.3,6.5,1.5,7,2.4s1.1,8.1,1.1,8.1s4.1,2.4,6.9-0.5v-13.3
		L1082.3,408.5z"/>
	<path fill="#E6E7E8" d="M1082.3,412.9l0,8.7c0,0,3.9,1.3,6.1,0c0,0,0.1-5.2,0.9-6.3C1089.3,415.3,1088.3,412,1082.3,412.9z"/>
	<path fill="#F8B799" d="M1099.7,402.2c0,0,1.3,7.8,0.6,11.2c-0.7,3.3-0.6,2.9,0.2,3c0,0-0.4,2.1,0,2.3c0.4,0.2,2.4-0.3,2.7-2.7
		c0.4-2.4,0-3,0-3s1.4-7.2,0.2-11.7C1103.4,401.2,1102,401.9,1099.7,402.2z"/>
	<path fill="#055CBA" d="M1083.6,386.8c0,0-1.9,0.6-3.3,4.8c-0.3,0.9-1.1,4.6-1.1,4.6l4.2,0.4
		C1083.3,396.6,1082.9,387.2,1083.6,386.8z"/>
	<path fill="#055CBA" d="M1096.1,423.8c-0.5,0.3-1,0.4-1.5,0.5V411h1.5V423.8z"/>
	<path fill="#F8B799" d="M1079.7,396.3c0,0-0.6,2.5-0.9,3.4c-0.4,0.9-2.7,6.9-4,8.2c-1.2,1.3-1.8,1.5-1.5,2.1
		c0.3,0.5-2.4,2.4-1.4,3.4c0.9,0.9,2.8-0.1,3.3-0.6c0.5-0.5,1.4-2.4,1.6-2.8s4.3-5.4,5.6-9.5l0.6-3.9L1079.7,396.3z"/>
	<path fill="#F8B799" d="M1092.5,383.8c0,0,1.9-0.7,2.4-3.7c0.5-3-2-6.3-3.8-5.3c0,0,0.9-5.3-3.6-0.9c-2.2,2.2-2.7,2.5-2.7,2.5
		s-0.3,5.1,0.5,6.5c0.8,1.3,2.8,1.3,2.8,1.3v1.8c0,0,1,2.3,4.4,0.4V383.8z"/>
	<path fill="#055CBA" d="M1082.3,408.5c0,0.3,0,0.5,0,0.5s10.5,7.6,15,1.2v-0.5L1082.3,408.5z"/>
	<path fill="#017CFF" d="M1093.8,386.9l-1.3-0.4c-3.5,1.9-4.4-0.4-4.4-0.4s-2.1,0.1-4.5,0.7c-0.7,0.7-0.3,7.8,0,14.4
		c0.2,3.5-1.3,3.8-1.3,7.2c0.4,0.2,10.5,7.6,15,1.2c0,0-0.8-4.3-0.8-5.7c0-1.3,0.8-5.2,0.8-5.2s1.4,1.3,1.7,3.6c0,0,3.8-0.2,4.7-1.4
		C1103.8,400.9,1103.3,388,1093.8,386.9z"/>
	<path fill="#FF7E4C" d="M1092.5,380.7c0,0,0.2,1.3,1.6,1.6c0.3-0.5,0.7-1.3,0.8-2.2c0.5-3,1.9-6.9-2.4-8c-2.2-0.6-1.3-2.7-4.6-1
		c-5.5,2.8-3.1,5.3-3.1,5.3s4.8,1,6.3,0.2c1.6-0.8,0.4,2.9,0.4,2.9s0.3,0.1,0.6,0c0-1.3,1.2-1.2,1.4-0.7
		C1093.8,379.5,1092.5,380.7,1092.5,380.7z"/>
	<path fill="#017CFF" d="M1096.1,441.9l0.2-7.6h-4.5v0l0.6,8.2C1092.4,442.5,1094.1,444.1,1096.1,441.9z"/>
	<path fill="#F1F2F2" d="M1091.6,432.6c0,0,2,1.4,4.7,0v1.7c0,0-1.9,1-4.6,0L1091.6,432.6z"/>
	<path fill="#017CFF" d="M1082.9,428.7l0,7.9c0.4,0.7,1,0.9,1.6,1c0.6,0,1.2-0.3,2-1l0-0.2l0.4-7.4L1082.9,428.7z"/>
	<path fill="#F1F2F2" d="M1082.9,427.2l0,1.6c1.8,0.7,3.3,0.5,4,0.3l0.1-1.7C1085,428.2,1083.5,427.6,1082.9,427.2z"/>
	<path fill="#055CBA" d="M1081.9,436.6c0,0-1.4,0.8-3.2,2.5c-1.8,1.6-0.4,3.1,2.2,2.6c2.6-0.6,3.3-1.2,4.7-1.9
		c1.4-0.7,1.1-2.2,1.1-3.1c0-0.3-1.1,1-1.9,1C1085,434.2,1081.9,436.6,1081.9,436.6z"/>
	<path fill="#055CBA" d="M1091.4,441.9c0,0-1.4,0.8-3.2,2.5c-1.8,1.6-0.4,3.1,2.2,2.6s3.3-1.2,4.7-1.9c1.4-0.7,1.1-2.2,1.1-3.1
		c0-0.3-1.1,1-1.9,1C1094.5,439.5,1091.4,441.9,1091.4,441.9z"/>
	<path fill="#055CBA" d="M1096.5,399.1c0,0-0.8,3.5-0.9,4.7c0,1.7,0.9,6.8,0.9,6.8c0.3-0.3,0.6-0.6,0.9-1c0,0,0,0,0,0
		c0,0-0.8-4.3-0.8-5.7c0-1.3,0.8-5.2,0.8-5.2v0v0c0,0-1.1-1.5-1.8-3.4C1095.6,395.3,1095.6,397.8,1096.5,399.1z"/>
	<path fill="#BA8973" d="M1092.5,383.8v2.7c-0.3,0.2-0.5,0.3-0.8,0.4l0,0c-0.1-1.2-1-2.2-2.2-2.4c-0.9-0.1-1.5-0.2-1.5-0.2
		S1091.6,384.4,1092.5,383.8z"/>
	<path fill="#BA8973" d="M1103.4,401.2c0,0-0.6,0.6-3.7,1c0.1,0.4,0.1,0.7,0.1,0.7s2.9-0.2,3.8-0.9L1103.4,401.2z"/>
	<polygon fill="#BA8973" points="1083,396.6 1079.7,396.3 1079.5,396.9 1082.8,397.3 	"/>
	<path fill="#BA8973" d="M1087.3,422c0,0-2.2,0.5-4.4-0.2v0.8c0,0,2.3,0.9,4.3,0.2L1087.3,422z"/>
	<path fill="#BA8973" d="M1091,423.7c0,0,3.1,1.6,5.6-0.1l0,0.8c0,0-2.5,1.5-5.6,0.3L1091,423.7z"/>
</g>
</svg>
